# eXeL WIREFRAME-CORE · FOIL · 1.111 m × 0.7777 m (demo / laser-tag scale) · v00.00 r0.031
# eXeL v0.031-2026.09.16-foil
# Generated by scripts/wire-export.mjs from foil-1.111.json — DO NOT EDIT; edit the model.
# Axes: OBJ (Z-up, m). Vertices 901 · segments 1755.
# Source: docs/security-2525/xbat-wireframe/xbat.wire.json scaled by airframe.geometry (foil-1.111 family)
v 0.388850 0.000000 0.006907
v 0.353770 -0.035144 0.010605
v 0.318690 -0.062260 0.010274
v 0.283610 -0.085546 0.011255
v 0.248529 -0.109117 0.012109
v 0.213449 -0.132941 0.012833
v 0.178369 -0.156973 0.013439
v 0.143289 -0.181821 0.013933
v 0.108209 -0.213365 0.014316
v 0.073129 -0.248899 0.014590
v 0.038048 -0.291252 0.014755
v 0.002968 -0.332703 0.014809
v -0.032112 -0.373118 0.014755
v -0.067192 -0.412521 0.014590
v -0.102272 -0.450606 0.014316
v -0.137352 -0.496472 0.008504
v -0.172432 -0.540820 0.008168
v -0.207513 -0.555500 0.007755
v -0.242593 -0.535386 0.007263
v -0.277673 -0.484341 0.006683
v -0.312753 -0.393121 0.005997
v -0.347833 -0.257543 0.005153
v -0.382913 -0.077754 0.006190
v 0.353770 -0.030751 0.014965
v 0.318690 -0.054477 0.015738
v 0.283610 -0.074852 0.018258
v 0.248529 -0.095477 0.020485
v 0.213449 -0.116323 0.022375
v 0.178369 -0.137351 0.023958
v 0.143289 -0.159094 0.025247
v 0.108209 -0.186694 0.026248
v 0.073129 -0.217787 0.026963
v 0.038048 -0.254846 0.027392
v 0.002968 -0.291116 0.027535
v -0.032112 -0.326479 0.027392
v -0.067192 -0.360956 0.026963
v -0.102272 -0.394280 0.026248
v -0.137352 -0.434413 0.016197
v -0.172432 -0.473217 0.015321
v -0.207513 -0.486062 0.014244
v -0.242593 -0.468462 0.012959
v -0.277673 -0.423798 0.011445
v -0.312753 -0.343981 0.009653
v -0.347833 -0.225350 0.007452
v -0.382913 -0.068035 0.006869
v 0.353770 -0.026358 0.019294
v 0.318690 -0.046695 0.020864
v 0.283610 -0.064159 0.024598
v 0.248529 -0.081838 0.028069
v 0.213449 -0.099706 0.031015
v 0.178369 -0.117730 0.033482
v 0.143289 -0.136366 0.035491
v 0.108209 -0.160024 0.037051
v 0.073129 -0.186675 0.038165
v 0.038048 -0.218439 0.038834
v 0.002968 -0.249528 0.039057
v -0.032112 -0.279839 0.038834
v -0.067192 -0.309391 0.038165
v -0.102272 -0.337955 0.037051
v -0.137352 -0.372354 0.023163
v -0.172432 -0.405615 0.021797
v -0.207513 -0.416625 0.020119
v -0.242593 -0.401539 0.018116
v -0.277673 -0.363256 0.015756
v -0.312753 -0.294841 0.012964
v -0.347833 -0.193157 0.009543
v -0.382913 -0.058315 0.007607
v 0.353770 -0.021965 0.023557
v 0.318690 -0.038912 0.026050
v 0.283610 -0.053466 0.030641
v 0.248529 -0.068198 0.035298
v 0.213449 -0.083088 0.039251
v 0.178369 -0.098108 0.042561
v 0.143289 -0.113638 0.045256
v 0.108209 -0.133353 0.047349
v 0.073129 -0.155562 0.048844
v 0.038048 -0.182033 0.049741
v 0.002968 -0.207940 0.050040
v -0.032112 -0.233199 0.049741
v -0.067192 -0.257826 0.048844
v -0.102272 -0.281629 0.047349
v -0.137352 -0.310295 0.029803
v -0.172432 -0.338012 0.027970
v -0.207513 -0.347188 0.025720
v -0.242593 -0.334616 0.023032
v -0.277673 -0.302713 0.019865
v -0.312753 -0.245701 0.016120
v -0.347833 -0.160964 0.011591
v -0.382913 -0.048596 0.008365
v 0.353770 -0.017572 0.027627
v 0.318690 -0.031130 0.031890
v 0.283610 -0.042773 0.037267
v 0.248529 -0.054559 0.043224
v 0.213449 -0.066470 0.048279
v 0.178369 -0.078487 0.052513
v 0.143289 -0.090911 0.055962
v 0.108209 -0.106682 0.058639
v 0.073129 -0.124450 0.060551
v 0.038048 -0.145626 0.061698
v 0.002968 -0.166352 0.062080
v -0.032112 -0.186559 0.061698
v -0.067192 -0.206260 0.060551
v -0.102272 -0.225303 0.058639
v -0.137352 -0.248236 0.055962
v -0.172432 -0.270410 0.052513
v -0.207513 -0.277750 0.048279
v -0.242593 -0.267693 0.043224
v -0.277673 -0.242170 0.037267
v -0.312753 -0.196561 0.030232
v -0.347833 -0.128772 0.022112
v -0.382913 -0.038877 0.014801
v 0.353770 -0.013179 0.031287
v 0.318690 -0.023347 0.038778
v 0.283610 -0.032080 0.045637
v 0.248529 -0.040919 0.053237
v 0.213449 -0.049853 0.059686
v 0.178369 -0.058865 0.065088
v 0.143289 -0.068183 0.069486
v 0.108209 -0.080012 0.072902
v 0.073129 -0.093337 0.075341
v 0.038048 -0.109220 0.076804
v 0.002968 -0.124764 0.077292
v -0.032112 -0.139919 0.076804
v -0.067192 -0.154695 0.075352
v -0.102272 -0.168977 0.072915
v -0.137352 -0.186177 0.069494
v -0.172432 -0.202807 0.065091
v -0.207513 -0.208312 0.059689
v -0.242593 -0.200770 0.053243
v -0.277673 -0.181628 0.045662
v -0.312753 -0.147421 0.036850
v -0.347833 -0.096579 0.027517
v -0.382913 -0.029158 0.015750
v 0.353770 -0.008786 0.034254
v 0.318690 -0.015565 0.046180
v 0.283610 -0.021386 0.055832
v 0.248529 -0.027279 0.065432
v 0.213449 -0.033235 0.073579
v 0.178369 -0.039243 0.080402
v 0.143289 -0.045455 0.085959
v 0.108209 -0.053341 0.090273
v 0.073129 -0.062225 0.093354
v 0.038048 -0.072813 0.095203
v 0.002968 -0.083176 0.095819
v -0.032112 -0.093280 0.095203
v -0.067192 -0.103130 0.093468
v -0.102272 -0.112652 0.090478
v -0.137352 -0.124118 0.086165
v -0.172432 -0.135205 0.080576
v -0.207513 -0.138875 0.073765
v -0.242593 -0.133846 0.065718
v -0.277673 -0.121085 0.056421
v -0.312753 -0.098280 0.046079
v -0.347833 -0.064386 0.035186
v -0.382913 -0.019438 0.016497
v 0.353770 -0.004393 0.036231
v 0.318690 -0.007782 0.052272
v 0.283610 -0.010693 0.065193
v 0.248529 -0.013640 0.076629
v 0.213449 -0.016618 0.086335
v 0.178369 -0.019622 0.094464
v 0.143289 -0.022728 0.101084
v 0.108209 -0.026671 0.106224
v 0.073129 -0.031112 0.109894
v 0.038048 -0.036407 0.112096
v 0.002968 -0.041588 0.112831
v -0.032112 -0.046640 0.112096
v -0.067192 -0.051565 0.110344
v -0.102272 -0.056326 0.107273
v -0.137352 -0.062059 0.102585
v -0.172432 -0.067602 0.096293
v -0.207513 -0.069437 0.088567
v -0.242593 -0.066923 0.079506
v -0.277673 -0.060543 0.069087
v -0.312753 -0.049140 0.057219
v -0.347833 -0.032193 0.042995
v -0.382913 -0.009719 0.016975
v 0.353770 0.000000 0.036958
v 0.318690 0.000000 0.054719
v 0.283610 0.000000 0.069168
v 0.248529 0.000000 0.081384
v 0.213449 0.000000 0.091752
v 0.178369 0.000000 0.100435
v 0.143289 0.000000 0.107506
v 0.108209 0.000000 0.112997
v 0.073129 0.000000 0.116917
v 0.038048 0.000000 0.119270
v 0.002968 0.000000 0.120055
v -0.032112 0.000000 0.119270
v -0.067192 0.000000 0.117628
v -0.102272 0.000000 0.114807
v -0.137352 0.000000 0.110416
v -0.172432 0.000000 0.104444
v -0.207513 0.000000 0.096860
v -0.242593 0.000000 0.087592
v -0.277673 0.000000 0.076474
v -0.312753 0.000000 0.063125
v -0.347833 0.000000 0.046463
v -0.382913 0.000000 0.017140
v 0.353770 0.004393 0.036231
v 0.318690 0.007782 0.052272
v 0.283610 0.010693 0.065193
v 0.248529 0.013640 0.076629
v 0.213449 0.016618 0.086335
v 0.178369 0.019622 0.094464
v 0.143289 0.022728 0.101084
v 0.108209 0.026671 0.106224
v 0.073129 0.031112 0.109894
v 0.038048 0.036407 0.112096
v 0.002968 0.041588 0.112831
v -0.032112 0.046640 0.112096
v -0.067192 0.051565 0.110344
v -0.102272 0.056326 0.107273
v -0.137352 0.062059 0.102585
v -0.172432 0.067602 0.096293
v -0.207513 0.069437 0.088567
v -0.242593 0.066923 0.079506
v -0.277673 0.060543 0.069087
v -0.312753 0.049140 0.057219
v -0.347833 0.032193 0.042995
v -0.382913 0.009719 0.016975
v 0.353770 0.008786 0.034254
v 0.318690 0.015565 0.046180
v 0.283610 0.021386 0.055832
v 0.248529 0.027279 0.065432
v 0.213449 0.033235 0.073579
v 0.178369 0.039243 0.080402
v 0.143289 0.045455 0.085959
v 0.108209 0.053341 0.090273
v 0.073129 0.062225 0.093354
v 0.038048 0.072813 0.095203
v 0.002968 0.083176 0.095819
v -0.032112 0.093280 0.095203
v -0.067192 0.103130 0.093468
v -0.102272 0.112652 0.090478
v -0.137352 0.124118 0.086165
v -0.172432 0.135205 0.080576
v -0.207513 0.138875 0.073765
v -0.242593 0.133846 0.065718
v -0.277673 0.121085 0.056421
v -0.312753 0.098280 0.046079
v -0.347833 0.064386 0.035186
v -0.382913 0.019438 0.016497
v 0.353770 0.013179 0.031287
v 0.318690 0.023347 0.038778
v 0.283610 0.032080 0.045637
v 0.248529 0.040919 0.053237
v 0.213449 0.049853 0.059686
v 0.178369 0.058865 0.065088
v 0.143289 0.068183 0.069486
v 0.108209 0.080012 0.072902
v 0.073129 0.093337 0.075341
v 0.038048 0.109220 0.076804
v 0.002968 0.124764 0.077292
v -0.032112 0.139919 0.076804
v -0.067192 0.154695 0.075352
v -0.102272 0.168977 0.072915
v -0.137352 0.186177 0.069494
v -0.172432 0.202807 0.065091
v -0.207513 0.208312 0.059689
v -0.242593 0.200770 0.053243
v -0.277673 0.181628 0.045662
v -0.312753 0.147421 0.036850
v -0.347833 0.096579 0.027517
v -0.382913 0.029158 0.015750
v 0.353770 0.017572 0.027627
v 0.318690 0.031130 0.031890
v 0.283610 0.042773 0.037267
v 0.248529 0.054559 0.043224
v 0.213449 0.066470 0.048279
v 0.178369 0.078487 0.052513
v 0.143289 0.090911 0.055962
v 0.108209 0.106682 0.058639
v 0.073129 0.124450 0.060551
v 0.038048 0.145626 0.061698
v 0.002968 0.166352 0.062080
v -0.032112 0.186559 0.061698
v -0.067192 0.206260 0.060551
v -0.102272 0.225303 0.058639
v -0.137352 0.248236 0.055962
v -0.172432 0.270410 0.052513
v -0.207513 0.277750 0.048279
v -0.242593 0.267693 0.043224
v -0.277673 0.242170 0.037267
v -0.312753 0.196561 0.030232
v -0.347833 0.128772 0.022112
v -0.382913 0.038877 0.014801
v 0.353770 0.021965 0.023557
v 0.318690 0.038912 0.026050
v 0.283610 0.053466 0.030641
v 0.248529 0.068198 0.035298
v 0.213449 0.083088 0.039251
v 0.178369 0.098108 0.042561
v 0.143289 0.113638 0.045256
v 0.108209 0.133353 0.047349
v 0.073129 0.155562 0.048844
v 0.038048 0.182033 0.049741
v 0.002968 0.207940 0.050040
v -0.032112 0.233199 0.049741
v -0.067192 0.257826 0.048844
v -0.102272 0.281629 0.047349
v -0.137352 0.310295 0.029803
v -0.172432 0.338012 0.027970
v -0.207513 0.347188 0.025720
v -0.242593 0.334616 0.023032
v -0.277673 0.302713 0.019865
v -0.312753 0.245701 0.016120
v -0.347833 0.160964 0.011591
v -0.382913 0.048596 0.008365
v 0.353770 0.026358 0.019294
v 0.318690 0.046695 0.020864
v 0.283610 0.064159 0.024598
v 0.248529 0.081838 0.028069
v 0.213449 0.099706 0.031015
v 0.178369 0.117730 0.033482
v 0.143289 0.136366 0.035491
v 0.108209 0.160024 0.037051
v 0.073129 0.186675 0.038165
v 0.038048 0.218439 0.038834
v 0.002968 0.249528 0.039057
v -0.032112 0.279839 0.038834
v -0.067192 0.309391 0.038165
v -0.102272 0.337955 0.037051
v -0.137352 0.372354 0.023163
v -0.172432 0.405615 0.021797
v -0.207513 0.416625 0.020119
v -0.242593 0.401539 0.018116
v -0.277673 0.363256 0.015756
v -0.312753 0.294841 0.012964
v -0.347833 0.193157 0.009543
v -0.382913 0.058315 0.007607
v 0.353770 0.030751 0.014965
v 0.318690 0.054477 0.015738
v 0.283610 0.074852 0.018258
v 0.248529 0.095477 0.020485
v 0.213449 0.116323 0.022375
v 0.178369 0.137351 0.023958
v 0.143289 0.159094 0.025247
v 0.108209 0.186694 0.026248
v 0.073129 0.217787 0.026963
v 0.038048 0.254846 0.027392
v 0.002968 0.291116 0.027535
v -0.032112 0.326479 0.027392
v -0.067192 0.360956 0.026963
v -0.102272 0.394280 0.026248
v -0.137352 0.434413 0.016197
v -0.172432 0.473217 0.015321
v -0.207513 0.486062 0.014244
v -0.242593 0.468462 0.012959
v -0.277673 0.423798 0.011445
v -0.312753 0.343981 0.009653
v -0.347833 0.225350 0.007452
v -0.382913 0.068035 0.006869
v 0.353770 0.035144 0.010605
v 0.318690 0.062260 0.010274
v 0.283610 0.085546 0.011255
v 0.248529 0.109117 0.012109
v 0.213449 0.132941 0.012833
v 0.178369 0.156973 0.013439
v 0.143289 0.181821 0.013933
v 0.108209 0.213365 0.014316
v 0.073129 0.248899 0.014590
v 0.038048 0.291252 0.014755
v 0.002968 0.332703 0.014809
v -0.032112 0.373118 0.014755
v -0.067192 0.412521 0.014590
v -0.102272 0.450606 0.014316
v -0.137352 0.496472 0.008504
v -0.172432 0.540820 0.008168
v -0.207513 0.555500 0.007755
v -0.242593 0.535386 0.007263
v -0.277673 0.484341 0.006683
v -0.312753 0.393121 0.005997
v -0.347833 0.257543 0.005153
v -0.382913 0.077754 0.006190
v 0.388850 0.000000 -0.012974
v 0.353770 -0.035144 -0.016672
v 0.318690 -0.062260 -0.016341
v 0.283610 -0.085546 -0.017323
v 0.248529 -0.109117 -0.018176
v 0.213449 -0.132941 -0.018900
v 0.178369 -0.156973 -0.019506
v 0.143289 -0.181821 -0.020000
v 0.108209 -0.213365 -0.020384
v 0.073129 -0.248899 -0.020657
v 0.038048 -0.291252 -0.020822
v 0.002968 -0.332703 -0.020877
v -0.032112 -0.373118 -0.020822
v -0.067192 -0.412521 -0.020657
v -0.102272 -0.450606 -0.020384
v -0.137352 -0.496472 -0.014571
v -0.172432 -0.540820 -0.014235
v -0.207513 -0.555500 -0.013823
v -0.242593 -0.535386 -0.013330
v -0.277673 -0.484341 -0.012750
v -0.312753 -0.393121 -0.012064
v -0.347833 -0.257543 -0.011220
v -0.382913 -0.077754 -0.012257
v 0.353770 -0.030751 -0.021032
v 0.318690 -0.054477 -0.021806
v 0.283610 -0.074852 -0.024325
v 0.248529 -0.095477 -0.026552
v 0.213449 -0.116323 -0.028442
v 0.178369 -0.137351 -0.030026
v 0.143289 -0.159094 -0.031315
v 0.108209 -0.186694 -0.032316
v 0.073129 -0.217787 -0.033030
v 0.038048 -0.254846 -0.033459
v 0.002968 -0.291116 -0.033602
v -0.032112 -0.326479 -0.033459
v -0.067192 -0.360956 -0.033030
v -0.102272 -0.394280 -0.032316
v -0.137352 -0.434413 -0.022265
v -0.172432 -0.473217 -0.021388
v -0.207513 -0.486062 -0.020312
v -0.242593 -0.468462 -0.019026
v -0.277673 -0.423798 -0.017512
v -0.312753 -0.343981 -0.015721
v -0.347833 -0.225350 -0.013520
v -0.382913 -0.068035 -0.012936
v 0.353770 -0.026358 -0.025361
v 0.318690 -0.046695 -0.026931
v 0.283610 -0.064159 -0.030665
v 0.248529 -0.081838 -0.034136
v 0.213449 -0.099706 -0.037082
v 0.178369 -0.117730 -0.039549
v 0.143289 -0.136366 -0.041558
v 0.108209 -0.160024 -0.043119
v 0.073129 -0.186675 -0.044233
v 0.038048 -0.218439 -0.044901
v 0.002968 -0.249528 -0.045124
v -0.032112 -0.279839 -0.044901
v -0.067192 -0.309391 -0.044233
v -0.102272 -0.337955 -0.043119
v -0.137352 -0.372354 -0.029231
v -0.172432 -0.405615 -0.027864
v -0.207513 -0.416625 -0.026187
v -0.242593 -0.401539 -0.024183
v -0.277673 -0.363256 -0.021823
v -0.312753 -0.294841 -0.019031
v -0.347833 -0.193157 -0.015610
v -0.382913 -0.058315 -0.013674
v 0.353770 -0.021965 -0.029624
v 0.318690 -0.038912 -0.032117
v 0.283610 -0.053466 -0.036708
v 0.248529 -0.068198 -0.041365
v 0.213449 -0.083088 -0.045318
v 0.178369 -0.098108 -0.048628
v 0.143289 -0.113638 -0.051323
v 0.108209 -0.133353 -0.053416
v 0.073129 -0.155562 -0.054911
v 0.038048 -0.182033 -0.055808
v 0.002968 -0.207940 -0.056107
v -0.032112 -0.233199 -0.055808
v -0.067192 -0.257826 -0.054911
v -0.102272 -0.281629 -0.053416
v -0.137352 -0.310295 -0.035871
v -0.172432 -0.338012 -0.034038
v -0.207513 -0.347188 -0.031787
v -0.242593 -0.334616 -0.029099
v -0.277673 -0.302713 -0.025933
v -0.312753 -0.245701 -0.022187
v -0.347833 -0.160964 -0.017659
v -0.382913 -0.048596 -0.014432
v 0.353770 -0.017572 -0.033694
v 0.318690 -0.031130 -0.037958
v 0.283610 -0.042773 -0.043334
v 0.248529 -0.054559 -0.049291
v 0.213449 -0.066470 -0.054347
v 0.178369 -0.078487 -0.058581
v 0.143289 -0.090911 -0.062029
v 0.108209 -0.106682 -0.064706
v 0.073129 -0.124450 -0.066618
v 0.038048 -0.145626 -0.067765
v 0.002968 -0.166352 -0.068148
v -0.032112 -0.186559 -0.067765
v -0.067192 -0.206260 -0.066618
v -0.102272 -0.225303 -0.064706
v -0.137352 -0.248236 -0.062029
v -0.172432 -0.270410 -0.058581
v -0.207513 -0.277750 -0.054347
v -0.242593 -0.267693 -0.049291
v -0.277673 -0.242170 -0.043334
v -0.312753 -0.196561 -0.036299
v -0.347833 -0.128772 -0.028179
v -0.382913 -0.038877 -0.020868
v 0.353770 -0.013179 -0.037355
v 0.318690 -0.023347 -0.044845
v 0.283610 -0.032080 -0.051704
v 0.248529 -0.040919 -0.059304
v 0.213449 -0.049853 -0.065753
v 0.178369 -0.058865 -0.071155
v 0.143289 -0.068183 -0.075554
v 0.108209 -0.080012 -0.078969
v 0.073129 -0.093337 -0.081408
v 0.038048 -0.109220 -0.082871
v 0.002968 -0.124764 -0.083359
v -0.032112 -0.139919 -0.082871
v -0.067192 -0.154695 -0.081420
v -0.102272 -0.168977 -0.078982
v -0.137352 -0.186177 -0.075561
v -0.172432 -0.202807 -0.071158
v -0.207513 -0.208312 -0.065756
v -0.242593 -0.200770 -0.059310
v -0.277673 -0.181628 -0.051730
v -0.312753 -0.147421 -0.042918
v -0.347833 -0.096579 -0.033584
v -0.382913 -0.029158 -0.021817
v 0.353770 -0.008786 -0.040321
v 0.318690 -0.015565 -0.052247
v 0.283610 -0.021386 -0.061899
v 0.248529 -0.027279 -0.071499
v 0.213449 -0.033235 -0.079646
v 0.178369 -0.039243 -0.086469
v 0.143289 -0.045455 -0.092026
v 0.108209 -0.053341 -0.096341
v 0.073129 -0.062225 -0.099421
v 0.038048 -0.072813 -0.101270
v 0.002968 -0.083176 -0.101887
v -0.032112 -0.093280 -0.101270
v -0.067192 -0.103130 -0.099536
v -0.102272 -0.112652 -0.096545
v -0.137352 -0.124118 -0.092233
v -0.172432 -0.135205 -0.086643
v -0.207513 -0.138875 -0.079832
v -0.242593 -0.133846 -0.071785
v -0.277673 -0.121085 -0.062488
v -0.312753 -0.098280 -0.052146
v -0.347833 -0.064386 -0.041253
v -0.382913 -0.019438 -0.022564
v 0.353770 -0.004393 -0.042298
v 0.318690 -0.007782 -0.058340
v 0.283610 -0.010693 -0.071260
v 0.248529 -0.013640 -0.082697
v 0.213449 -0.016618 -0.092403
v 0.178369 -0.019622 -0.100531
v 0.143289 -0.022728 -0.107151
v 0.108209 -0.026671 -0.112291
v 0.073129 -0.031112 -0.115961
v 0.038048 -0.036407 -0.118164
v 0.002968 -0.041588 -0.118898
v -0.032112 -0.046640 -0.118164
v -0.067192 -0.051565 -0.116411
v -0.102272 -0.056326 -0.113341
v -0.137352 -0.062059 -0.108653
v -0.172432 -0.067602 -0.102360
v -0.207513 -0.069437 -0.094635
v -0.242593 -0.066923 -0.085573
v -0.277673 -0.060543 -0.075154
v -0.312753 -0.049140 -0.063287
v -0.347833 -0.032193 -0.049063
v -0.382913 -0.009719 -0.023043
v 0.353770 0.000000 -0.043025
v 0.318690 0.000000 -0.060786
v 0.283610 0.000000 -0.075235
v 0.248529 0.000000 -0.087451
v 0.213449 0.000000 -0.097819
v 0.178369 0.000000 -0.106502
v 0.143289 0.000000 -0.113574
v 0.108209 0.000000 -0.119064
v 0.073129 0.000000 -0.122985
v 0.038048 0.000000 -0.125337
v 0.002968 0.000000 -0.126122
v -0.032112 0.000000 -0.125337
v -0.067192 0.000000 -0.123695
v -0.102272 0.000000 -0.120874
v -0.137352 0.000000 -0.116483
v -0.172432 0.000000 -0.110511
v -0.207513 0.000000 -0.102927
v -0.242593 0.000000 -0.093659
v -0.277673 0.000000 -0.082542
v -0.312753 0.000000 -0.069192
v -0.347833 0.000000 -0.052531
v -0.382913 0.000000 -0.023207
v 0.353770 0.004393 -0.042298
v 0.318690 0.007782 -0.058340
v 0.283610 0.010693 -0.071260
v 0.248529 0.013640 -0.082697
v 0.213449 0.016618 -0.092403
v 0.178369 0.019622 -0.100531
v 0.143289 0.022728 -0.107151
v 0.108209 0.026671 -0.112291
v 0.073129 0.031112 -0.115961
v 0.038048 0.036407 -0.118164
v 0.002968 0.041588 -0.118898
v -0.032112 0.046640 -0.118164
v -0.067192 0.051565 -0.116411
v -0.102272 0.056326 -0.113341
v -0.137352 0.062059 -0.108653
v -0.172432 0.067602 -0.102360
v -0.207513 0.069437 -0.094635
v -0.242593 0.066923 -0.085573
v -0.277673 0.060543 -0.075154
v -0.312753 0.049140 -0.063287
v -0.347833 0.032193 -0.049063
v -0.382913 0.009719 -0.023043
v 0.353770 0.008786 -0.040321
v 0.318690 0.015565 -0.052247
v 0.283610 0.021386 -0.061899
v 0.248529 0.027279 -0.071499
v 0.213449 0.033235 -0.079646
v 0.178369 0.039243 -0.086469
v 0.143289 0.045455 -0.092026
v 0.108209 0.053341 -0.096341
v 0.073129 0.062225 -0.099421
v 0.038048 0.072813 -0.101270
v 0.002968 0.083176 -0.101887
v -0.032112 0.093280 -0.101270
v -0.067192 0.103130 -0.099536
v -0.102272 0.112652 -0.096545
v -0.137352 0.124118 -0.092233
v -0.172432 0.135205 -0.086643
v -0.207513 0.138875 -0.079832
v -0.242593 0.133846 -0.071785
v -0.277673 0.121085 -0.062488
v -0.312753 0.098280 -0.052146
v -0.347833 0.064386 -0.041253
v -0.382913 0.019438 -0.022564
v 0.353770 0.013179 -0.037355
v 0.318690 0.023347 -0.044845
v 0.283610 0.032080 -0.051704
v 0.248529 0.040919 -0.059304
v 0.213449 0.049853 -0.065753
v 0.178369 0.058865 -0.071155
v 0.143289 0.068183 -0.075554
v 0.108209 0.080012 -0.078969
v 0.073129 0.093337 -0.081408
v 0.038048 0.109220 -0.082871
v 0.002968 0.124764 -0.083359
v -0.032112 0.139919 -0.082871
v -0.067192 0.154695 -0.081420
v -0.102272 0.168977 -0.078982
v -0.137352 0.186177 -0.075561
v -0.172432 0.202807 -0.071158
v -0.207513 0.208312 -0.065756
v -0.242593 0.200770 -0.059310
v -0.277673 0.181628 -0.051730
v -0.312753 0.147421 -0.042918
v -0.347833 0.096579 -0.033584
v -0.382913 0.029158 -0.021817
v 0.353770 0.017572 -0.033694
v 0.318690 0.031130 -0.037958
v 0.283610 0.042773 -0.043334
v 0.248529 0.054559 -0.049291
v 0.213449 0.066470 -0.054347
v 0.178369 0.078487 -0.058581
v 0.143289 0.090911 -0.062029
v 0.108209 0.106682 -0.064706
v 0.073129 0.124450 -0.066618
v 0.038048 0.145626 -0.067765
v 0.002968 0.166352 -0.068148
v -0.032112 0.186559 -0.067765
v -0.067192 0.206260 -0.066618
v -0.102272 0.225303 -0.064706
v -0.137352 0.248236 -0.062029
v -0.172432 0.270410 -0.058581
v -0.207513 0.277750 -0.054347
v -0.242593 0.267693 -0.049291
v -0.277673 0.242170 -0.043334
v -0.312753 0.196561 -0.036299
v -0.347833 0.128772 -0.028179
v -0.382913 0.038877 -0.020868
v 0.353770 0.021965 -0.029624
v 0.318690 0.038912 -0.032117
v 0.283610 0.053466 -0.036708
v 0.248529 0.068198 -0.041365
v 0.213449 0.083088 -0.045318
v 0.178369 0.098108 -0.048628
v 0.143289 0.113638 -0.051323
v 0.108209 0.133353 -0.053416
v 0.073129 0.155562 -0.054911
v 0.038048 0.182033 -0.055808
v 0.002968 0.207940 -0.056107
v -0.032112 0.233199 -0.055808
v -0.067192 0.257826 -0.054911
v -0.102272 0.281629 -0.053416
v -0.137352 0.310295 -0.035871
v -0.172432 0.338012 -0.034038
v -0.207513 0.347188 -0.031787
v -0.242593 0.334616 -0.029099
v -0.277673 0.302713 -0.025933
v -0.312753 0.245701 -0.022187
v -0.347833 0.160964 -0.017659
v -0.382913 0.048596 -0.014432
v 0.353770 0.026358 -0.025361
v 0.318690 0.046695 -0.026931
v 0.283610 0.064159 -0.030665
v 0.248529 0.081838 -0.034136
v 0.213449 0.099706 -0.037082
v 0.178369 0.117730 -0.039549
v 0.143289 0.136366 -0.041558
v 0.108209 0.160024 -0.043119
v 0.073129 0.186675 -0.044233
v 0.038048 0.218439 -0.044901
v 0.002968 0.249528 -0.045124
v -0.032112 0.279839 -0.044901
v -0.067192 0.309391 -0.044233
v -0.102272 0.337955 -0.043119
v -0.137352 0.372354 -0.029231
v -0.172432 0.405615 -0.027864
v -0.207513 0.416625 -0.026187
v -0.242593 0.401539 -0.024183
v -0.277673 0.363256 -0.021823
v -0.312753 0.294841 -0.019031
v -0.347833 0.193157 -0.015610
v -0.382913 0.058315 -0.013674
v 0.353770 0.030751 -0.021032
v 0.318690 0.054477 -0.021806
v 0.283610 0.074852 -0.024325
v 0.248529 0.095477 -0.026552
v 0.213449 0.116323 -0.028442
v 0.178369 0.137351 -0.030026
v 0.143289 0.159094 -0.031315
v 0.108209 0.186694 -0.032316
v 0.073129 0.217787 -0.033030
v 0.038048 0.254846 -0.033459
v 0.002968 0.291116 -0.033602
v -0.032112 0.326479 -0.033459
v -0.067192 0.360956 -0.033030
v -0.102272 0.394280 -0.032316
v -0.137352 0.434413 -0.022265
v -0.172432 0.473217 -0.021388
v -0.207513 0.486062 -0.020312
v -0.242593 0.468462 -0.019026
v -0.277673 0.423798 -0.017512
v -0.312753 0.343981 -0.015721
v -0.347833 0.225350 -0.013520
v -0.382913 0.068035 -0.012936
v 0.353770 0.035144 -0.016672
v 0.318690 0.062260 -0.016341
v 0.283610 0.085546 -0.017323
v 0.248529 0.109117 -0.018176
v 0.213449 0.132941 -0.018900
v 0.178369 0.156973 -0.019506
v 0.143289 0.181821 -0.020000
v 0.108209 0.213365 -0.020384
v 0.073129 0.248899 -0.020657
v 0.038048 0.291252 -0.020822
v 0.002968 0.332703 -0.020877
v -0.032112 0.373118 -0.020822
v -0.067192 0.412521 -0.020657
v -0.102272 0.450606 -0.020384
v -0.137352 0.496472 -0.014571
v -0.172432 0.540820 -0.014235
v -0.207513 0.555500 -0.013823
v -0.242593 0.535386 -0.013330
v -0.277673 0.484341 -0.012750
v -0.312753 0.393121 -0.012064
v -0.347833 0.257543 -0.011220
v -0.382913 0.077754 -0.012257
v 0.388850 0.000000 0.011585
v 0.353770 0.000000 0.041636
v 0.318690 0.000000 0.059397
v 0.283610 0.000000 0.073846
v 0.248529 0.000000 0.086062
v 0.213449 0.000000 0.096430
v 0.178369 0.000000 0.105113
v 0.143289 0.000000 0.112184
v 0.108209 0.000000 0.117675
v 0.073129 0.000000 0.121595
v 0.038048 0.000000 0.123948
v 0.002968 0.000000 0.124733
v -0.032112 0.000000 0.123948
v -0.067192 0.000000 0.122306
v -0.102272 0.000000 0.119485
v -0.137352 0.000000 0.115094
v -0.172432 0.000000 0.109122
v -0.207513 0.000000 0.101538
v -0.242593 0.000000 0.092270
v -0.277673 0.000000 0.081152
v -0.312753 0.000000 0.067803
v -0.347833 0.000000 0.051141
v -0.382913 0.000000 0.021818
v 0.341357 -0.012095 0.042119
v 0.216687 -0.067675 0.049841
v 0.103891 -0.146868 0.046688
v -0.020778 -0.264939 0.043566
v -0.136543 -0.449244 0.017683
v -0.187004 -0.524118 0.014583
v 0.341357 0.012095 0.042119
v 0.216687 0.067675 0.049841
v 0.103891 0.146868 0.046688
v -0.020778 0.264939 0.043566
v -0.136543 0.449244 0.017683
v -0.187004 0.524118 0.014583
v -0.161773 -0.528438 0.013139
v -0.194425 -0.554356 0.013094
v -0.233013 -0.545717 0.012185
v -0.271601 -0.499640 0.011468
v -0.182552 -0.321094 0.033715
v -0.210751 -0.498200 0.017225
v -0.277538 -0.476602 0.011588
v -0.315236 -0.390209 0.010182
v -0.276647 -0.272138 0.026495
v -0.206298 -0.286537 0.051455
v -0.290895 -0.195824 0.042450
v -0.333936 -0.280778 0.011897
v -0.363619 -0.164147 0.010134
v -0.330968 -0.083513 0.043882
v -0.161773 0.528438 0.013139
v -0.194425 0.554356 0.013094
v -0.233013 0.545717 0.012185
v -0.271601 0.499640 0.011468
v -0.182552 0.321094 0.033715
v -0.210751 0.498200 0.017225
v -0.277538 0.476602 0.011588
v -0.315236 0.390209 0.010182
v -0.276647 0.272138 0.026495
v -0.206298 0.286537 0.051455
v -0.290895 0.195824 0.042450
v -0.333936 0.280778 0.011897
v -0.363619 0.164147 0.010134
v -0.330968 0.083513 0.043882
v 0.372524 -0.013823 0.022811
v 0.385288 0.000000 0.019113
v 0.372524 0.013823 0.022811
v 0.346700 0.020158 0.035019
v 0.328296 0.000000 0.056113
v 0.346700 -0.020158 0.035019
v 0.307221 -0.040893 0.033329
v 0.283475 -0.012095 0.068617
v 0.296832 0.016703 0.058631
v 0.325031 0.036285 0.029797
v 0.335420 0.002880 0.050840
v 0.325031 -0.028222 0.036286
v 0.231529 -0.053276 0.054248
v 0.207782 -0.014975 0.092769
v 0.219062 0.019582 0.086419
v 0.249339 0.040893 0.056726
v 0.265665 0.001728 0.079366
v 0.253791 -0.035997 0.059062
v 0.144854 -0.044636 0.089595
v 0.121701 -0.009791 0.113497
v 0.138027 0.019582 0.107272
v 0.165632 0.033981 0.091778
v 0.182552 0.000576 0.102988
v 0.172756 -0.030238 0.092528
v 0.212235 -0.076314 0.049272
v 0.201549 -0.083513 0.048905
v 0.201549 -0.069114 0.056787
v 0.212235 0.076314 0.049272
v 0.201549 0.069114 0.056787
v 0.201549 0.083513 0.048905
v 0.105375 -0.093593 0.072115
v 0.094689 -0.100792 0.071300
v 0.094689 -0.086393 0.079045
v 0.105375 0.093593 0.072115
v 0.094689 0.086393 0.079045
v 0.094689 0.100792 0.071300
v 0.025231 -0.057595 0.110846
v 0.014545 -0.064795 0.108906
v 0.014545 -0.050396 0.115037
v 0.025231 0.057595 0.110846
v 0.014545 0.050396 0.115037
v 0.014545 0.064795 0.108906
v 0.022262 -0.061915 0.107942
v 0.022262 0.061915 0.107942
v -0.069756 0.061915 0.112219
v -0.069756 -0.061915 0.112219
v -0.026715 0.023614 0.124199
v -0.007178 0.011807 0.126122
v -0.007178 -0.011807 0.126122
v -0.026715 -0.023614 0.124199
v -0.046252 -0.011807 0.124829
v -0.046252 0.011807 0.124829
v -0.319094 0.042621 -0.099516
v -0.314925 0.041802 -0.099516
v -0.310916 0.039376 -0.099516
v -0.307221 0.035438 -0.099516
v -0.303982 0.030137 -0.099516
v -0.301324 0.023679 -0.099516
v -0.299349 0.016310 -0.099516
v -0.298133 0.008315 -0.099516
v -0.297723 0.000000 -0.099516
v -0.298133 -0.008315 -0.099516
v -0.299349 -0.016310 -0.099516
v -0.301324 -0.023679 -0.099516
v -0.303982 -0.030137 -0.099516
v -0.307221 -0.035438 -0.099516
v -0.310916 -0.039376 -0.099516
v -0.314925 -0.041802 -0.099516
v -0.319094 -0.042621 -0.099516
v -0.323264 -0.041802 -0.099516
v -0.327273 -0.039376 -0.099516
v -0.330968 -0.035438 -0.099516
v -0.334207 -0.030137 -0.099516
v -0.336865 -0.023679 -0.099516
v -0.338840 -0.016310 -0.099516
v -0.340056 -0.008315 -0.099516
v -0.340466 0.000000 -0.099516
v -0.340056 0.008315 -0.099516
v -0.338840 0.016310 -0.099516
v -0.336865 0.023679 -0.099516
v -0.334207 0.030137 -0.099516
v -0.330968 0.035438 -0.099516
v -0.327273 0.039376 -0.099516
v -0.323264 0.041802 -0.099516
v 0.279022 -0.030238 -0.121444
v 0.279022 0.030238 -0.121444
v -0.388850 0.030238 -0.121444
v -0.388850 -0.030238 -0.121444
o foil-1.111.airframe
# role consciousness · kind polyline · lod 0
l 1 2
l 2 3
l 3 4
l 4 5
l 5 6
l 6 7
l 7 8
l 8 9
l 9 10
l 10 11
l 11 12
l 12 13
l 13 14
l 14 15
l 15 16
l 16 17
l 17 18
l 18 19
l 19 20
l 20 21
l 21 22
l 22 23
l 1 24
l 24 25
l 25 26
l 26 27
l 27 28
l 28 29
l 29 30
l 30 31
l 31 32
l 32 33
l 33 34
l 34 35
l 35 36
l 36 37
l 37 38
l 38 39
l 39 40
l 40 41
l 41 42
l 42 43
l 43 44
l 44 45
l 1 46
l 46 47
l 47 48
l 48 49
l 49 50
l 50 51
l 51 52
l 52 53
l 53 54
l 54 55
l 55 56
l 56 57
l 57 58
l 58 59
l 59 60
l 60 61
l 61 62
l 62 63
l 63 64
l 64 65
l 65 66
l 66 67
l 1 68
l 68 69
l 69 70
l 70 71
l 71 72
l 72 73
l 73 74
l 74 75
l 75 76
l 76 77
l 77 78
l 78 79
l 79 80
l 80 81
l 81 82
l 82 83
l 83 84
l 84 85
l 85 86
l 86 87
l 87 88
l 88 89
l 1 90
l 90 91
l 91 92
l 92 93
l 93 94
l 94 95
l 95 96
l 96 97
l 97 98
l 98 99
l 99 100
l 100 101
l 101 102
l 102 103
l 103 104
l 104 105
l 105 106
l 106 107
l 107 108
l 108 109
l 109 110
l 110 111
l 1 112
l 112 113
l 113 114
l 114 115
l 115 116
l 116 117
l 117 118
l 118 119
l 119 120
l 120 121
l 121 122
l 122 123
l 123 124
l 124 125
l 125 126
l 126 127
l 127 128
l 128 129
l 129 130
l 130 131
l 131 132
l 132 133
l 1 134
l 134 135
l 135 136
l 136 137
l 137 138
l 138 139
l 139 140
l 140 141
l 141 142
l 142 143
l 143 144
l 144 145
l 145 146
l 146 147
l 147 148
l 148 149
l 149 150
l 150 151
l 151 152
l 152 153
l 153 154
l 154 155
l 1 156
l 156 157
l 157 158
l 158 159
l 159 160
l 160 161
l 161 162
l 162 163
l 163 164
l 164 165
l 165 166
l 166 167
l 167 168
l 168 169
l 169 170
l 170 171
l 171 172
l 172 173
l 173 174
l 174 175
l 175 176
l 176 177
l 1 178
l 178 179
l 179 180
l 180 181
l 181 182
l 182 183
l 183 184
l 184 185
l 185 186
l 186 187
l 187 188
l 188 189
l 189 190
l 190 191
l 191 192
l 192 193
l 193 194
l 194 195
l 195 196
l 196 197
l 197 198
l 198 199
l 1 200
l 200 201
l 201 202
l 202 203
l 203 204
l 204 205
l 205 206
l 206 207
l 207 208
l 208 209
l 209 210
l 210 211
l 211 212
l 212 213
l 213 214
l 214 215
l 215 216
l 216 217
l 217 218
l 218 219
l 219 220
l 220 221
l 1 222
l 222 223
l 223 224
l 224 225
l 225 226
l 226 227
l 227 228
l 228 229
l 229 230
l 230 231
l 231 232
l 232 233
l 233 234
l 234 235
l 235 236
l 236 237
l 237 238
l 238 239
l 239 240
l 240 241
l 241 242
l 242 243
l 1 244
l 244 245
l 245 246
l 246 247
l 247 248
l 248 249
l 249 250
l 250 251
l 251 252
l 252 253
l 253 254
l 254 255
l 255 256
l 256 257
l 257 258
l 258 259
l 259 260
l 260 261
l 261 262
l 262 263
l 263 264
l 264 265
l 1 266
l 266 267
l 267 268
l 268 269
l 269 270
l 270 271
l 271 272
l 272 273
l 273 274
l 274 275
l 275 276
l 276 277
l 277 278
l 278 279
l 279 280
l 280 281
l 281 282
l 282 283
l 283 284
l 284 285
l 285 286
l 286 287
l 1 288
l 288 289
l 289 290
l 290 291
l 291 292
l 292 293
l 293 294
l 294 295
l 295 296
l 296 297
l 297 298
l 298 299
l 299 300
l 300 301
l 301 302
l 302 303
l 303 304
l 304 305
l 305 306
l 306 307
l 307 308
l 308 309
l 1 310
l 310 311
l 311 312
l 312 313
l 313 314
l 314 315
l 315 316
l 316 317
l 317 318
l 318 319
l 319 320
l 320 321
l 321 322
l 322 323
l 323 324
l 324 325
l 325 326
l 326 327
l 327 328
l 328 329
l 329 330
l 330 331
l 1 332
l 332 333
l 333 334
l 334 335
l 335 336
l 336 337
l 337 338
l 338 339
l 339 340
l 340 341
l 341 342
l 342 343
l 343 344
l 344 345
l 345 346
l 346 347
l 347 348
l 348 349
l 349 350
l 350 351
l 351 352
l 352 353
l 1 354
l 354 355
l 355 356
l 356 357
l 357 358
l 358 359
l 359 360
l 360 361
l 361 362
l 362 363
l 363 364
l 364 365
l 365 366
l 366 367
l 367 368
l 368 369
l 369 370
l 370 371
l 371 372
l 372 373
l 373 374
l 374 375
l 376 377
l 377 378
l 378 379
l 379 380
l 380 381
l 381 382
l 382 383
l 383 384
l 384 385
l 385 386
l 386 387
l 387 388
l 388 389
l 389 390
l 390 391
l 391 392
l 392 393
l 393 394
l 394 395
l 395 396
l 396 397
l 397 398
l 376 399
l 399 400
l 400 401
l 401 402
l 402 403
l 403 404
l 404 405
l 405 406
l 406 407
l 407 408
l 408 409
l 409 410
l 410 411
l 411 412
l 412 413
l 413 414
l 414 415
l 415 416
l 416 417
l 417 418
l 418 419
l 419 420
l 376 421
l 421 422
l 422 423
l 423 424
l 424 425
l 425 426
l 426 427
l 427 428
l 428 429
l 429 430
l 430 431
l 431 432
l 432 433
l 433 434
l 434 435
l 435 436
l 436 437
l 437 438
l 438 439
l 439 440
l 440 441
l 441 442
l 376 443
l 443 444
l 444 445
l 445 446
l 446 447
l 447 448
l 448 449
l 449 450
l 450 451
l 451 452
l 452 453
l 453 454
l 454 455
l 455 456
l 456 457
l 457 458
l 458 459
l 459 460
l 460 461
l 461 462
l 462 463
l 463 464
l 376 465
l 465 466
l 466 467
l 467 468
l 468 469
l 469 470
l 470 471
l 471 472
l 472 473
l 473 474
l 474 475
l 475 476
l 476 477
l 477 478
l 478 479
l 479 480
l 480 481
l 481 482
l 482 483
l 483 484
l 484 485
l 485 486
l 376 487
l 487 488
l 488 489
l 489 490
l 490 491
l 491 492
l 492 493
l 493 494
l 494 495
l 495 496
l 496 497
l 497 498
l 498 499
l 499 500
l 500 501
l 501 502
l 502 503
l 503 504
l 504 505
l 505 506
l 506 507
l 507 508
l 376 509
l 509 510
l 510 511
l 511 512
l 512 513
l 513 514
l 514 515
l 515 516
l 516 517
l 517 518
l 518 519
l 519 520
l 520 521
l 521 522
l 522 523
l 523 524
l 524 525
l 525 526
l 526 527
l 527 528
l 528 529
l 529 530
l 376 531
l 531 532
l 532 533
l 533 534
l 534 535
l 535 536
l 536 537
l 537 538
l 538 539
l 539 540
l 540 541
l 541 542
l 542 543
l 543 544
l 544 545
l 545 546
l 546 547
l 547 548
l 548 549
l 549 550
l 550 551
l 551 552
l 376 553
l 553 554
l 554 555
l 555 556
l 556 557
l 557 558
l 558 559
l 559 560
l 560 561
l 561 562
l 562 563
l 563 564
l 564 565
l 565 566
l 566 567
l 567 568
l 568 569
l 569 570
l 570 571
l 571 572
l 572 573
l 573 574
l 376 575
l 575 576
l 576 577
l 577 578
l 578 579
l 579 580
l 580 581
l 581 582
l 582 583
l 583 584
l 584 585
l 585 586
l 586 587
l 587 588
l 588 589
l 589 590
l 590 591
l 591 592
l 592 593
l 593 594
l 594 595
l 595 596
l 376 597
l 597 598
l 598 599
l 599 600
l 600 601
l 601 602
l 602 603
l 603 604
l 604 605
l 605 606
l 606 607
l 607 608
l 608 609
l 609 610
l 610 611
l 611 612
l 612 613
l 613 614
l 614 615
l 615 616
l 616 617
l 617 618
l 376 619
l 619 620
l 620 621
l 621 622
l 622 623
l 623 624
l 624 625
l 625 626
l 626 627
l 627 628
l 628 629
l 629 630
l 630 631
l 631 632
l 632 633
l 633 634
l 634 635
l 635 636
l 636 637
l 637 638
l 638 639
l 639 640
l 376 641
l 641 642
l 642 643
l 643 644
l 644 645
l 645 646
l 646 647
l 647 648
l 648 649
l 649 650
l 650 651
l 651 652
l 652 653
l 653 654
l 654 655
l 655 656
l 656 657
l 657 658
l 658 659
l 659 660
l 660 661
l 661 662
l 376 663
l 663 664
l 664 665
l 665 666
l 666 667
l 667 668
l 668 669
l 669 670
l 670 671
l 671 672
l 672 673
l 673 674
l 674 675
l 675 676
l 676 677
l 677 678
l 678 679
l 679 680
l 680 681
l 681 682
l 682 683
l 683 684
l 376 685
l 685 686
l 686 687
l 687 688
l 688 689
l 689 690
l 690 691
l 691 692
l 692 693
l 693 694
l 694 695
l 695 696
l 696 697
l 697 698
l 698 699
l 699 700
l 700 701
l 701 702
l 702 703
l 703 704
l 704 705
l 705 706
l 376 707
l 707 708
l 708 709
l 709 710
l 710 711
l 711 712
l 712 713
l 713 714
l 714 715
l 715 716
l 716 717
l 717 718
l 718 719
l 719 720
l 720 721
l 721 722
l 722 723
l 723 724
l 724 725
l 725 726
l 726 727
l 727 728
l 376 729
l 729 730
l 730 731
l 731 732
l 732 733
l 733 734
l 734 735
l 735 736
l 736 737
l 737 738
l 738 739
l 739 740
l 740 741
l 741 742
l 742 743
l 743 744
l 744 745
l 745 746
l 746 747
l 747 748
l 748 749
l 749 750
l 2 24
l 24 46
l 46 68
l 68 90
l 90 112
l 112 134
l 134 156
l 156 178
l 178 200
l 200 222
l 222 244
l 244 266
l 266 288
l 288 310
l 310 332
l 332 354
l 3 25
l 25 47
l 47 69
l 69 91
l 91 113
l 113 135
l 135 157
l 157 179
l 179 201
l 201 223
l 223 245
l 245 267
l 267 289
l 289 311
l 311 333
l 333 355
l 4 26
l 26 48
l 48 70
l 70 92
l 92 114
l 114 136
l 136 158
l 158 180
l 180 202
l 202 224
l 224 246
l 246 268
l 268 290
l 290 312
l 312 334
l 334 356
l 5 27
l 27 49
l 49 71
l 71 93
l 93 115
l 115 137
l 137 159
l 159 181
l 181 203
l 203 225
l 225 247
l 247 269
l 269 291
l 291 313
l 313 335
l 335 357
l 6 28
l 28 50
l 50 72
l 72 94
l 94 116
l 116 138
l 138 160
l 160 182
l 182 204
l 204 226
l 226 248
l 248 270
l 270 292
l 292 314
l 314 336
l 336 358
l 7 29
l 29 51
l 51 73
l 73 95
l 95 117
l 117 139
l 139 161
l 161 183
l 183 205
l 205 227
l 227 249
l 249 271
l 271 293
l 293 315
l 315 337
l 337 359
l 8 30
l 30 52
l 52 74
l 74 96
l 96 118
l 118 140
l 140 162
l 162 184
l 184 206
l 206 228
l 228 250
l 250 272
l 272 294
l 294 316
l 316 338
l 338 360
l 9 31
l 31 53
l 53 75
l 75 97
l 97 119
l 119 141
l 141 163
l 163 185
l 185 207
l 207 229
l 229 251
l 251 273
l 273 295
l 295 317
l 317 339
l 339 361
l 10 32
l 32 54
l 54 76
l 76 98
l 98 120
l 120 142
l 142 164
l 164 186
l 186 208
l 208 230
l 230 252
l 252 274
l 274 296
l 296 318
l 318 340
l 340 362
l 11 33
l 33 55
l 55 77
l 77 99
l 99 121
l 121 143
l 143 165
l 165 187
l 187 209
l 209 231
l 231 253
l 253 275
l 275 297
l 297 319
l 319 341
l 341 363
l 12 34
l 34 56
l 56 78
l 78 100
l 100 122
l 122 144
l 144 166
l 166 188
l 188 210
l 210 232
l 232 254
l 254 276
l 276 298
l 298 320
l 320 342
l 342 364
l 13 35
l 35 57
l 57 79
l 79 101
l 101 123
l 123 145
l 145 167
l 167 189
l 189 211
l 211 233
l 233 255
l 255 277
l 277 299
l 299 321
l 321 343
l 343 365
l 14 36
l 36 58
l 58 80
l 80 102
l 102 124
l 124 146
l 146 168
l 168 190
l 190 212
l 212 234
l 234 256
l 256 278
l 278 300
l 300 322
l 322 344
l 344 366
l 15 37
l 37 59
l 59 81
l 81 103
l 103 125
l 125 147
l 147 169
l 169 191
l 191 213
l 213 235
l 235 257
l 257 279
l 279 301
l 301 323
l 323 345
l 345 367
l 16 38
l 38 60
l 60 82
l 82 104
l 104 126
l 126 148
l 148 170
l 170 192
l 192 214
l 214 236
l 236 258
l 258 280
l 280 302
l 302 324
l 324 346
l 346 368
l 17 39
l 39 61
l 61 83
l 83 105
l 105 127
l 127 149
l 149 171
l 171 193
l 193 215
l 215 237
l 237 259
l 259 281
l 281 303
l 303 325
l 325 347
l 347 369
l 18 40
l 40 62
l 62 84
l 84 106
l 106 128
l 128 150
l 150 172
l 172 194
l 194 216
l 216 238
l 238 260
l 260 282
l 282 304
l 304 326
l 326 348
l 348 370
l 19 41
l 41 63
l 63 85
l 85 107
l 107 129
l 129 151
l 151 173
l 173 195
l 195 217
l 217 239
l 239 261
l 261 283
l 283 305
l 305 327
l 327 349
l 349 371
l 20 42
l 42 64
l 64 86
l 86 108
l 108 130
l 130 152
l 152 174
l 174 196
l 196 218
l 218 240
l 240 262
l 262 284
l 284 306
l 306 328
l 328 350
l 350 372
l 21 43
l 43 65
l 65 87
l 87 109
l 109 131
l 131 153
l 153 175
l 175 197
l 197 219
l 219 241
l 241 263
l 263 285
l 285 307
l 307 329
l 329 351
l 351 373
l 22 44
l 44 66
l 66 88
l 88 110
l 110 132
l 132 154
l 154 176
l 176 198
l 198 220
l 220 242
l 242 264
l 264 286
l 286 308
l 308 330
l 330 352
l 352 374
l 377 399
l 399 421
l 421 443
l 443 465
l 465 487
l 487 509
l 509 531
l 531 553
l 553 575
l 575 597
l 597 619
l 619 641
l 641 663
l 663 685
l 685 707
l 707 729
l 378 400
l 400 422
l 422 444
l 444 466
l 466 488
l 488 510
l 510 532
l 532 554
l 554 576
l 576 598
l 598 620
l 620 642
l 642 664
l 664 686
l 686 708
l 708 730
l 379 401
l 401 423
l 423 445
l 445 467
l 467 489
l 489 511
l 511 533
l 533 555
l 555 577
l 577 599
l 599 621
l 621 643
l 643 665
l 665 687
l 687 709
l 709 731
l 380 402
l 402 424
l 424 446
l 446 468
l 468 490
l 490 512
l 512 534
l 534 556
l 556 578
l 578 600
l 600 622
l 622 644
l 644 666
l 666 688
l 688 710
l 710 732
l 381 403
l 403 425
l 425 447
l 447 469
l 469 491
l 491 513
l 513 535
l 535 557
l 557 579
l 579 601
l 601 623
l 623 645
l 645 667
l 667 689
l 689 711
l 711 733
l 382 404
l 404 426
l 426 448
l 448 470
l 470 492
l 492 514
l 514 536
l 536 558
l 558 580
l 580 602
l 602 624
l 624 646
l 646 668
l 668 690
l 690 712
l 712 734
l 383 405
l 405 427
l 427 449
l 449 471
l 471 493
l 493 515
l 515 537
l 537 559
l 559 581
l 581 603
l 603 625
l 625 647
l 647 669
l 669 691
l 691 713
l 713 735
l 384 406
l 406 428
l 428 450
l 450 472
l 472 494
l 494 516
l 516 538
l 538 560
l 560 582
l 582 604
l 604 626
l 626 648
l 648 670
l 670 692
l 692 714
l 714 736
l 385 407
l 407 429
l 429 451
l 451 473
l 473 495
l 495 517
l 517 539
l 539 561
l 561 583
l 583 605
l 605 627
l 627 649
l 649 671
l 671 693
l 693 715
l 715 737
l 386 408
l 408 430
l 430 452
l 452 474
l 474 496
l 496 518
l 518 540
l 540 562
l 562 584
l 584 606
l 606 628
l 628 650
l 650 672
l 672 694
l 694 716
l 716 738
l 387 409
l 409 431
l 431 453
l 453 475
l 475 497
l 497 519
l 519 541
l 541 563
l 563 585
l 585 607
l 607 629
l 629 651
l 651 673
l 673 695
l 695 717
l 717 739
l 388 410
l 410 432
l 432 454
l 454 476
l 476 498
l 498 520
l 520 542
l 542 564
l 564 586
l 586 608
l 608 630
l 630 652
l 652 674
l 674 696
l 696 718
l 718 740
l 389 411
l 411 433
l 433 455
l 455 477
l 477 499
l 499 521
l 521 543
l 543 565
l 565 587
l 587 609
l 609 631
l 631 653
l 653 675
l 675 697
l 697 719
l 719 741
l 390 412
l 412 434
l 434 456
l 456 478
l 478 500
l 500 522
l 522 544
l 544 566
l 566 588
l 588 610
l 610 632
l 632 654
l 654 676
l 676 698
l 698 720
l 720 742
l 391 413
l 413 435
l 435 457
l 457 479
l 479 501
l 501 523
l 523 545
l 545 567
l 567 589
l 589 611
l 611 633
l 633 655
l 655 677
l 677 699
l 699 721
l 721 743
l 392 414
l 414 436
l 436 458
l 458 480
l 480 502
l 502 524
l 524 546
l 546 568
l 568 590
l 590 612
l 612 634
l 634 656
l 656 678
l 678 700
l 700 722
l 722 744
l 393 415
l 415 437
l 437 459
l 459 481
l 481 503
l 503 525
l 525 547
l 547 569
l 569 591
l 591 613
l 613 635
l 635 657
l 657 679
l 679 701
l 701 723
l 723 745
l 394 416
l 416 438
l 438 460
l 460 482
l 482 504
l 504 526
l 526 548
l 548 570
l 570 592
l 592 614
l 614 636
l 636 658
l 658 680
l 680 702
l 702 724
l 724 746
l 395 417
l 417 439
l 439 461
l 461 483
l 483 505
l 505 527
l 527 549
l 549 571
l 571 593
l 593 615
l 615 637
l 637 659
l 659 681
l 681 703
l 703 725
l 725 747
l 396 418
l 418 440
l 440 462
l 462 484
l 484 506
l 506 528
l 528 550
l 550 572
l 572 594
l 594 616
l 616 638
l 638 660
l 660 682
l 682 704
l 704 726
l 726 748
l 397 419
l 419 441
l 441 463
l 463 485
l 485 507
l 507 529
l 529 551
l 551 573
l 573 595
l 595 617
l 617 639
l 639 661
l 661 683
l 683 705
l 705 727
l 727 749
l 2 377
l 46 421
l 90 465
l 134 509
l 178 553
l 222 597
l 266 641
l 310 685
l 354 729
l 4 379
l 48 423
l 92 467
l 136 511
l 180 555
l 224 599
l 268 643
l 312 687
l 356 731
l 6 381
l 50 425
l 94 469
l 138 513
l 182 557
l 226 601
l 270 645
l 314 689
l 358 733
l 8 383
l 52 427
l 96 471
l 140 515
l 184 559
l 228 603
l 272 647
l 316 691
l 360 735
l 10 385
l 54 429
l 98 473
l 142 517
l 186 561
l 230 605
l 274 649
l 318 693
l 362 737
l 12 387
l 56 431
l 100 475
l 144 519
l 188 563
l 232 607
l 276 651
l 320 695
l 364 739
l 14 389
l 58 433
l 102 477
l 146 521
l 190 565
l 234 609
l 278 653
l 322 697
l 366 741
l 16 391
l 60 435
l 104 479
l 148 523
l 192 567
l 236 611
l 280 655
l 324 699
l 368 743
l 18 393
l 62 437
l 106 481
l 150 525
l 194 569
l 238 613
l 282 657
l 326 701
l 370 745
l 20 395
l 64 439
l 108 483
l 152 527
l 196 571
l 240 615
l 284 659
l 328 703
l 372 747
l 22 397
l 66 441
l 110 485
l 154 529
l 198 573
l 242 617
l 286 661
l 330 705
l 374 749
l 1 354
l 354 355
l 355 356
l 356 357
l 357 358
l 358 359
l 359 360
l 360 361
l 361 362
l 362 363
l 363 364
l 364 365
l 365 366
l 366 367
l 367 368
l 368 369
l 369 370
l 370 371
l 371 372
l 372 373
l 373 374
l 374 375
l 375 23
l 23 22
l 22 21
l 21 20
l 20 19
l 19 18
l 18 17
l 17 16
l 16 15
l 15 14
l 14 13
l 13 12
l 12 11
l 11 10
l 10 9
l 9 8
l 8 7
l 7 6
l 6 5
l 5 4
l 4 3
l 3 2
l 2 1
l 376 729
l 729 730
l 730 731
l 731 732
l 732 733
l 733 734
l 734 735
l 735 736
l 736 737
l 737 738
l 738 739
l 739 740
l 740 741
l 741 742
l 742 743
l 743 744
l 744 745
l 745 746
l 746 747
l 747 748
l 748 749
l 749 750
l 750 398
l 398 397
l 397 396
l 396 395
l 395 394
l 394 393
l 393 392
l 392 391
l 391 390
l 390 389
l 389 388
l 388 387
l 387 386
l 386 385
l 385 384
l 384 383
l 383 382
l 382 381
l 381 380
l 380 379
l 379 378
l 378 377
l 377 376
l 751 752
l 752 753
l 753 754
l 754 755
l 755 756
l 756 757
l 757 758
l 758 759
l 759 760
l 760 761
l 761 762
l 762 763
l 763 764
l 764 765
l 765 766
l 766 767
l 767 768
l 768 769
l 769 770
l 770 771
l 771 772
l 772 773
l 774 775
l 775 776
l 776 777
l 777 778
l 778 779
l 780 781
l 781 782
l 782 783
l 783 784
l 784 785
l 786 787
l 787 788
l 788 789
l 790 791
l 791 792
l 792 793
l 793 794
l 794 795
l 795 790
l 796 797
l 797 798
l 798 799
l 800 801
l 801 802
l 802 803
l 804 805
l 805 806
l 806 807
l 807 808
l 808 809
l 809 804
l 810 811
l 811 812
l 812 813
l 814 815
l 815 816
l 816 817
l 817 818
l 818 819
l 819 814
l 820 821
l 821 822
l 822 823
l 823 824
l 824 825
l 825 820
l 826 827
l 827 828
l 828 829
l 829 830
l 830 831
l 831 826
l 832 833
l 833 834
l 834 835
l 835 836
l 836 837
l 837 832
l 838 839
l 839 840
l 840 838
l 841 842
l 842 843
l 843 841
l 844 845
l 845 846
l 846 844
l 847 848
l 848 849
l 849 847
l 850 851
l 851 852
l 852 850
l 853 854
l 854 855
l 855 853
l 856 857
l 857 858
l 858 859
l 859 856
l 860 861
l 861 862
l 862 863
l 863 864
l 864 865
l 865 860
l 866 867
l 867 868
l 868 869
l 869 870
l 870 871
l 871 872
l 872 873
l 873 874
l 874 875
l 875 876
l 876 877
l 877 878
l 878 879
l 879 880
l 880 881
l 881 882
l 882 883
l 883 884
l 884 885
l 885 886
l 886 887
l 887 888
l 888 889
l 889 890
l 890 891
l 891 892
l 892 893
l 893 894
l 894 895
l 895 896
l 896 897
l 897 866
l 898 899
l 899 900
l 900 901
l 901 898
l 898 900
l 899 901
