# eXeL WIREFRAME-CORE · FOIL · 11.111 m × 7.777 m (full scale) · v00.00 r0.025
# eXeL v0.025-2026.09.16-foil
# Generated by scripts/wire-export.mjs from foil-11.111.json — DO NOT EDIT; edit the model.
# Axes: OBJ (Z-up, m). Vertices 901 · segments 1755.
# Source: docs/security-2525/xbat-wireframe/xbat.wire.json scaled by airframe.geometry (foil-1.111 family)
v 3.888500 0.000000 0.069073
v 3.537699 -0.351470 0.106052
v 3.186897 -0.622651 0.102742
v 2.836095 -0.855534 0.112558
v 2.485294 -1.091269 0.121091
v 2.134492 -1.329527 0.128332
v 1.783691 -1.569872 0.134397
v 1.432889 -1.818378 0.139336
v 1.082088 -2.133840 0.143170
v 0.731286 -2.489218 0.145909
v 0.380485 -2.912786 0.147552
v 0.029683 -3.327334 0.148100
v -0.321118 -3.731520 0.147552
v -0.671920 -4.125580 0.145909
v -1.022722 -4.506467 0.143170
v -1.373523 -4.965171 0.085040
v -1.724324 -5.408684 0.081682
v -2.075126 -5.555500 0.077558
v -2.425927 -5.354338 0.072634
v -2.776729 -4.843843 0.066832
v -3.127531 -3.931568 0.059969
v -3.478332 -2.575663 0.051535
v -3.829134 -0.777608 0.061905
v 3.537699 -0.307536 0.149653
v 3.186897 -0.544820 0.157391
v 2.836095 -0.748592 0.182586
v 2.485294 -0.954861 0.204860
v 2.134492 -1.163336 0.223762
v 1.783691 -1.373638 0.239593
v 1.432889 -1.591081 0.252486
v 1.082088 -1.867110 0.262496
v 0.731286 -2.178066 0.269644
v 0.380485 -2.548688 0.273933
v 0.029683 -2.911418 0.275363
v -0.321118 -3.265080 0.273933
v -0.671920 -3.609883 0.269644
v -1.022722 -3.943159 0.262496
v -1.373523 -4.344525 0.161982
v -1.724324 -4.732599 0.153215
v -2.075126 -4.861062 0.142450
v -2.425927 -4.685046 0.129597
v -2.776729 -4.238363 0.114451
v -3.127531 -3.440122 0.096538
v -3.478332 -2.253705 0.074528
v -3.829134 -0.680407 0.068693
v 3.537699 -0.263603 0.192950
v 3.186897 -0.466988 0.208649
v 2.836095 -0.641651 0.245988
v 2.485294 -0.818452 0.280702
v 2.134492 -0.997145 0.310162
v 1.783691 -1.177404 0.334835
v 1.432889 -1.363783 0.354928
v 1.082088 -1.600380 0.370530
v 0.731286 -1.866914 0.381670
v 0.380485 -2.184590 0.388355
v 0.029683 -2.495501 0.390584
v -0.321118 -2.798640 0.388355
v -0.671920 -3.094185 0.381670
v -1.022722 -3.379851 0.370530
v -1.373523 -3.723879 0.231643
v -1.724324 -4.056513 0.217980
v -2.075126 -4.166625 0.201202
v -2.425927 -4.015753 0.181169
v -2.776729 -3.632883 0.157564
v -3.127531 -2.948676 0.129645
v -3.478332 -1.931747 0.095433
v -3.829134 -0.583206 0.076071
v 3.537699 -0.219669 0.235579
v 3.186897 -0.389157 0.260513
v 2.836095 -0.534709 0.306426
v 2.485294 -0.682043 0.352998
v 2.134492 -0.830954 0.392523
v 1.783691 -0.981170 0.425625
v 1.432889 -1.136486 0.452583
v 1.082088 -1.333650 0.473514
v 0.731286 -1.555762 0.488460
v 0.380485 -1.820492 0.497429
v 0.029683 -2.079584 0.500419
v -0.321118 -2.332200 0.497429
v -0.671920 -2.578488 0.488460
v -1.022722 -2.816542 0.473514
v -1.373523 -3.103232 0.298048
v -1.724324 -3.380427 0.279717
v -2.075126 -3.472188 0.257208
v -2.425927 -3.346461 0.230331
v -2.776729 -3.027402 0.198661
v -3.127531 -2.457230 0.161207
v -3.478332 -1.609789 0.115919
v -3.829134 -0.486005 0.083651
v 3.537699 -0.175735 0.276284
v 3.186897 -0.311326 0.318918
v 2.836095 -0.427767 0.372683
v 2.485294 -0.545635 0.432257
v 2.134492 -0.664763 0.482815
v 1.783691 -0.784936 0.525158
v 1.432889 -0.909189 0.559641
v 1.082088 -1.066920 0.586414
v 0.731286 -1.244609 0.605532
v 0.380485 -1.456393 0.617006
v 0.029683 -1.663667 0.620831
v -0.321118 -1.865760 0.617006
v -0.671920 -2.062790 0.605537
v -1.022722 -2.253234 0.586418
v -1.373523 -2.482586 0.559641
v -1.724324 -2.704342 0.525158
v -2.075126 -2.777750 0.482815
v -2.425927 -2.677169 0.432257
v -2.776729 -2.421922 0.372686
v -3.127531 -1.965784 0.302335
v -3.478332 -1.287832 0.221127
v -3.829134 -0.388804 0.148016
v 3.537699 -0.131801 0.312889
v 3.186897 -0.233494 0.387793
v 2.836095 -0.320825 0.456391
v 2.485294 -0.409226 0.532390
v 2.134492 -0.498572 0.596888
v 1.783691 -0.588702 0.650905
v 1.432889 -0.681892 0.694895
v 1.082088 -0.800190 0.729050
v 0.731286 -0.933457 0.753440
v 0.380485 -1.092295 0.768076
v 0.029683 -1.247750 0.772956
v -0.321118 -1.399320 0.768076
v -0.671920 -1.547093 0.753556
v -1.022722 -1.689925 0.729185
v -1.373523 -1.861939 0.694970
v -1.724324 -2.028257 0.650939
v -2.075126 -2.083312 0.596918
v -2.425927 -2.007877 0.532451
v -2.776729 -1.816441 0.456645
v -3.127531 -1.474338 0.368520
v -3.478332 -0.965874 0.275178
v -3.829134 -0.291603 0.157508
v 3.537699 -0.087868 0.342557
v 3.186897 -0.155663 0.461823
v 2.836095 -0.213884 0.558344
v 2.485294 -0.272817 0.654347
v 2.134492 -0.332382 0.735822
v 1.783691 -0.392468 0.804058
v 1.432889 -0.454595 0.859627
v 1.082088 -0.533460 0.902773
v 0.731286 -0.622305 0.933583
v 0.380485 -0.728197 0.952072
v 0.029683 -0.831834 0.958236
v -0.321118 -0.932880 0.952072
v -0.671920 -1.031395 0.934726
v -1.022722 -1.126617 0.904821
v -1.373523 -1.241293 0.861693
v -1.724324 -1.352171 0.805795
v -2.075126 -1.388875 0.737685
v -2.425927 -1.338585 0.657211
v -2.776729 -1.210961 0.564238
v -3.127531 -0.982892 0.460806
v -3.478332 -0.643916 0.351876
v -3.829134 -0.194402 0.164979
v 3.537699 -0.043934 0.362325
v 3.186897 -0.077831 0.522747
v 2.836095 -0.106942 0.651956
v 2.485294 -0.136409 0.766327
v 2.134492 -0.166191 0.863391
v 1.783691 -0.196234 0.944682
v 1.432889 -0.227297 1.010884
v 1.082088 -0.266730 1.062285
v 0.731286 -0.311152 1.098989
v 0.380485 -0.364098 1.121015
v 0.029683 -0.415917 1.128359
v -0.321118 -0.466440 1.121015
v -0.671920 -0.515698 1.103489
v -1.022722 -0.563308 1.072782
v -1.373523 -0.620646 1.025901
v -1.724324 -0.676086 0.962972
v -2.075126 -0.694437 0.885713
v -2.425927 -0.669292 0.795098
v -2.776729 -0.605480 0.690897
v -3.127531 -0.491446 0.572219
v -3.478332 -0.321958 0.429972
v -3.829134 -0.097201 0.169761
v 3.537699 0.000000 0.369594
v 3.186897 0.000000 0.547212
v 2.836095 0.000000 0.691707
v 2.485294 0.000000 0.813878
v 2.134492 0.000000 0.917562
v 1.783691 0.000000 1.004397
v 1.432889 0.000000 1.075113
v 1.082088 0.000000 1.130020
v 0.731286 0.000000 1.169226
v 0.380485 0.000000 1.192755
v 0.029683 0.000000 1.200600
v -0.321118 0.000000 1.192755
v -0.671920 0.000000 1.176331
v -1.022722 0.000000 1.148119
v -1.373523 0.000000 1.104206
v -1.724324 0.000000 1.044485
v -2.075126 0.000000 0.968644
v -2.425927 0.000000 0.875956
v -2.776729 0.000000 0.764779
v -3.127531 0.000000 0.631278
v -3.478332 0.000000 0.464655
v -3.829134 0.000000 0.171407
v 3.537699 0.043934 0.362325
v 3.186897 0.077831 0.522747
v 2.836095 0.106942 0.651956
v 2.485294 0.136409 0.766327
v 2.134492 0.166191 0.863391
v 1.783691 0.196234 0.944682
v 1.432889 0.227297 1.010884
v 1.082088 0.266730 1.062285
v 0.731286 0.311152 1.098989
v 0.380485 0.364098 1.121015
v 0.029683 0.415917 1.128359
v -0.321118 0.466440 1.121015
v -0.671920 0.515698 1.103489
v -1.022722 0.563308 1.072782
v -1.373523 0.620646 1.025901
v -1.724324 0.676086 0.962972
v -2.075126 0.694437 0.885713
v -2.425927 0.669292 0.795098
v -2.776729 0.605480 0.690897
v -3.127531 0.491446 0.572219
v -3.478332 0.321958 0.429972
v -3.829134 0.097201 0.169761
v 3.537699 0.087868 0.342557
v 3.186897 0.155663 0.461823
v 2.836095 0.213884 0.558344
v 2.485294 0.272817 0.654347
v 2.134492 0.332382 0.735822
v 1.783691 0.392468 0.804058
v 1.432889 0.454595 0.859627
v 1.082088 0.533460 0.902773
v 0.731286 0.622305 0.933583
v 0.380485 0.728197 0.952072
v 0.029683 0.831834 0.958236
v -0.321118 0.932880 0.952072
v -0.671920 1.031395 0.934726
v -1.022722 1.126617 0.904821
v -1.373523 1.241293 0.861693
v -1.724324 1.352171 0.805795
v -2.075126 1.388875 0.737685
v -2.425927 1.338585 0.657211
v -2.776729 1.210961 0.564238
v -3.127531 0.982892 0.460806
v -3.478332 0.643916 0.351876
v -3.829134 0.194402 0.164979
v 3.537699 0.131801 0.312889
v 3.186897 0.233494 0.387793
v 2.836095 0.320825 0.456391
v 2.485294 0.409226 0.532390
v 2.134492 0.498572 0.596888
v 1.783691 0.588702 0.650905
v 1.432889 0.681892 0.694895
v 1.082088 0.800190 0.729050
v 0.731286 0.933457 0.753440
v 0.380485 1.092295 0.768076
v 0.029683 1.247750 0.772956
v -0.321118 1.399320 0.768076
v -0.671920 1.547093 0.753556
v -1.022722 1.689925 0.729185
v -1.373523 1.861939 0.694970
v -1.724324 2.028257 0.650939
v -2.075126 2.083312 0.596918
v -2.425927 2.007877 0.532451
v -2.776729 1.816441 0.456645
v -3.127531 1.474338 0.368520
v -3.478332 0.965874 0.275178
v -3.829134 0.291603 0.157508
v 3.537699 0.175735 0.276284
v 3.186897 0.311326 0.318918
v 2.836095 0.427767 0.372683
v 2.485294 0.545635 0.432257
v 2.134492 0.664763 0.482815
v 1.783691 0.784936 0.525158
v 1.432889 0.909189 0.559641
v 1.082088 1.066920 0.586414
v 0.731286 1.244609 0.605532
v 0.380485 1.456393 0.617006
v 0.029683 1.663667 0.620831
v -0.321118 1.865760 0.617006
v -0.671920 2.062790 0.605537
v -1.022722 2.253234 0.586418
v -1.373523 2.482586 0.559641
v -1.724324 2.704342 0.525158
v -2.075126 2.777750 0.482815
v -2.425927 2.677169 0.432257
v -2.776729 2.421922 0.372686
v -3.127531 1.965784 0.302335
v -3.478332 1.287832 0.221127
v -3.829134 0.388804 0.148016
v 3.537699 0.219669 0.235579
v 3.186897 0.389157 0.260513
v 2.836095 0.534709 0.306426
v 2.485294 0.682043 0.352998
v 2.134492 0.830954 0.392523
v 1.783691 0.981170 0.425625
v 1.432889 1.136486 0.452583
v 1.082088 1.333650 0.473514
v 0.731286 1.555762 0.488460
v 0.380485 1.820492 0.497429
v 0.029683 2.079584 0.500419
v -0.321118 2.332200 0.497429
v -0.671920 2.578488 0.488460
v -1.022722 2.816542 0.473514
v -1.373523 3.103232 0.298048
v -1.724324 3.380427 0.279717
v -2.075126 3.472188 0.257208
v -2.425927 3.346461 0.230331
v -2.776729 3.027402 0.198661
v -3.127531 2.457230 0.161207
v -3.478332 1.609789 0.115919
v -3.829134 0.486005 0.083651
v 3.537699 0.263603 0.192950
v 3.186897 0.466988 0.208649
v 2.836095 0.641651 0.245988
v 2.485294 0.818452 0.280702
v 2.134492 0.997145 0.310162
v 1.783691 1.177404 0.334835
v 1.432889 1.363783 0.354928
v 1.082088 1.600380 0.370530
v 0.731286 1.866914 0.381670
v 0.380485 2.184590 0.388355
v 0.029683 2.495501 0.390584
v -0.321118 2.798640 0.388355
v -0.671920 3.094185 0.381670
v -1.022722 3.379851 0.370530
v -1.373523 3.723879 0.231643
v -1.724324 4.056513 0.217980
v -2.075126 4.166625 0.201202
v -2.425927 4.015753 0.181169
v -2.776729 3.632883 0.157564
v -3.127531 2.948676 0.129645
v -3.478332 1.931747 0.095433
v -3.829134 0.583206 0.076071
v 3.537699 0.307536 0.149653
v 3.186897 0.544820 0.157391
v 2.836095 0.748592 0.182586
v 2.485294 0.954861 0.204860
v 2.134492 1.163336 0.223762
v 1.783691 1.373638 0.239593
v 1.432889 1.591081 0.252486
v 1.082088 1.867110 0.262496
v 0.731286 2.178066 0.269644
v 0.380485 2.548688 0.273933
v 0.029683 2.911418 0.275363
v -0.321118 3.265080 0.273933
v -0.671920 3.609883 0.269644
v -1.022722 3.943159 0.262496
v -1.373523 4.344525 0.161982
v -1.724324 4.732599 0.153215
v -2.075126 4.861062 0.142450
v -2.425927 4.685046 0.129597
v -2.776729 4.238363 0.114451
v -3.127531 3.440122 0.096538
v -3.478332 2.253705 0.074528
v -3.829134 0.680407 0.068693
v 3.537699 0.351470 0.106052
v 3.186897 0.622651 0.102742
v 2.836095 0.855534 0.112558
v 2.485294 1.091269 0.121091
v 2.134492 1.329527 0.128332
v 1.783691 1.569872 0.134397
v 1.432889 1.818378 0.139336
v 1.082088 2.133840 0.143170
v 0.731286 2.489218 0.145909
v 0.380485 2.912786 0.147552
v 0.029683 3.327334 0.148100
v -0.321118 3.731520 0.147552
v -0.671920 4.125580 0.145909
v -1.022722 4.506467 0.143170
v -1.373523 4.965171 0.085040
v -1.724324 5.408684 0.081682
v -2.075126 5.555500 0.077558
v -2.425927 5.354338 0.072634
v -2.776729 4.843843 0.066832
v -3.127531 3.931568 0.059969
v -3.478332 2.575663 0.051535
v -3.829134 0.777608 0.061905
v 3.888500 0.000000 -0.129748
v 3.537699 -0.351470 -0.166727
v 3.186897 -0.622651 -0.163417
v 2.836095 -0.855534 -0.173233
v 2.485294 -1.091269 -0.181766
v 2.134492 -1.329527 -0.189007
v 1.783691 -1.569872 -0.195072
v 1.432889 -1.818378 -0.200011
v 1.082088 -2.133840 -0.203845
v 0.731286 -2.489218 -0.206584
v 0.380485 -2.912786 -0.208227
v 0.029683 -3.327334 -0.208775
v -0.321118 -3.731520 -0.208227
v -0.671920 -4.125580 -0.206584
v -1.022722 -4.506467 -0.203845
v -1.373523 -4.965171 -0.145715
v -1.724324 -5.408684 -0.142357
v -2.075126 -5.555500 -0.138233
v -2.425927 -5.354338 -0.133309
v -2.776729 -4.843843 -0.127507
v -3.127531 -3.931568 -0.120645
v -3.478332 -2.575663 -0.112210
v -3.829134 -0.777608 -0.122580
v 3.537699 -0.307536 -0.210328
v 3.186897 -0.544820 -0.218066
v 2.836095 -0.748592 -0.243262
v 2.485294 -0.954861 -0.265535
v 2.134492 -1.163336 -0.284438
v 1.783691 -1.373638 -0.300269
v 1.432889 -1.591081 -0.313161
v 1.082088 -1.867110 -0.323171
v 0.731286 -2.178066 -0.330319
v 0.380485 -2.548688 -0.334609
v 0.029683 -2.911418 -0.336039
v -0.321118 -3.265080 -0.334609
v -0.671920 -3.609883 -0.330319
v -1.022722 -3.943159 -0.323171
v -1.373523 -4.344525 -0.222657
v -1.724324 -4.732599 -0.213891
v -2.075126 -4.861062 -0.203126
v -2.425927 -4.685046 -0.190272
v -2.776729 -4.238363 -0.175126
v -3.127531 -3.440122 -0.157213
v -3.478332 -2.253705 -0.135204
v -3.829134 -0.680407 -0.129368
v 3.537699 -0.263603 -0.253625
v 3.186897 -0.466988 -0.269324
v 2.836095 -0.641651 -0.306663
v 2.485294 -0.818452 -0.341377
v 2.134492 -0.997145 -0.370837
v 1.783691 -1.177404 -0.395510
v 1.432889 -1.363783 -0.415604
v 1.082088 -1.600380 -0.431205
v 0.731286 -1.866914 -0.442345
v 0.380485 -2.184590 -0.449030
v 0.029683 -2.495501 -0.451259
v -0.321118 -2.798640 -0.449030
v -0.671920 -3.094185 -0.442345
v -1.022722 -3.379851 -0.431205
v -1.373523 -3.723879 -0.292319
v -1.724324 -4.056513 -0.278655
v -2.075126 -4.166625 -0.261877
v -2.425927 -4.015753 -0.241844
v -2.776729 -3.632883 -0.218239
v -3.127531 -2.948676 -0.190320
v -3.478332 -1.931747 -0.156109
v -3.829134 -0.583206 -0.136746
v 3.537699 -0.219669 -0.296254
v 3.186897 -0.389157 -0.321188
v 2.836095 -0.534709 -0.367101
v 2.485294 -0.682043 -0.413673
v 2.134492 -0.830954 -0.453199
v 1.783691 -0.981170 -0.486301
v 1.432889 -1.136486 -0.513258
v 1.082088 -1.333650 -0.534189
v 0.731286 -1.555762 -0.549135
v 0.380485 -1.820492 -0.558104
v 0.029683 -2.079584 -0.561095
v -0.321118 -2.332200 -0.558104
v -0.671920 -2.578488 -0.549135
v -1.022722 -2.816542 -0.534189
v -1.373523 -3.103232 -0.358724
v -1.724324 -3.380427 -0.340392
v -2.075126 -3.472188 -0.317883
v -2.425927 -3.346461 -0.291006
v -2.776729 -3.027402 -0.259337
v -3.127531 -2.457230 -0.221882
v -3.478332 -1.609789 -0.176594
v -3.829134 -0.486005 -0.144327
v 3.537699 -0.175735 -0.336960
v 3.186897 -0.311326 -0.379593
v 2.836095 -0.427767 -0.433359
v 2.485294 -0.545635 -0.492932
v 2.134492 -0.664763 -0.543491
v 1.783691 -0.784936 -0.585833
v 1.432889 -0.909189 -0.620316
v 1.082088 -1.066920 -0.647090
v 0.731286 -1.244609 -0.666208
v 0.380485 -1.456393 -0.677681
v 0.029683 -1.663667 -0.681506
v -0.321118 -1.865760 -0.677681
v -0.671920 -2.062790 -0.666213
v -1.022722 -2.253234 -0.647093
v -1.373523 -2.482586 -0.620317
v -1.724324 -2.704342 -0.585833
v -2.075126 -2.777750 -0.543491
v -2.425927 -2.677169 -0.492932
v -2.776729 -2.421922 -0.433362
v -3.127531 -1.965784 -0.363010
v -3.478332 -1.287832 -0.281803
v -3.829134 -0.388804 -0.208691
v 3.537699 -0.131801 -0.373564
v 3.186897 -0.233494 -0.448469
v 2.836095 -0.320825 -0.517067
v 2.485294 -0.409226 -0.593066
v 2.134492 -0.498572 -0.657563
v 1.783691 -0.588702 -0.711580
v 1.432889 -0.681892 -0.755570
v 1.082088 -0.800190 -0.789726
v 0.731286 -0.933457 -0.814115
v 0.380485 -1.092295 -0.828751
v 0.029683 -1.247750 -0.833631
v -0.321118 -1.399320 -0.828751
v -0.671920 -1.547093 -0.814232
v -1.022722 -1.689925 -0.789860
v -1.373523 -1.861939 -0.755646
v -1.724324 -2.028257 -0.711614
v -2.075126 -2.083312 -0.657593
v -2.425927 -2.007877 -0.593127
v -2.776729 -1.816441 -0.517320
v -3.127531 -1.474338 -0.429195
v -3.478332 -0.965874 -0.335854
v -3.829134 -0.291603 -0.218183
v 3.537699 -0.087868 -0.403232
v 3.186897 -0.155663 -0.522498
v 2.836095 -0.213884 -0.619019
v 2.485294 -0.272817 -0.715022
v 2.134492 -0.332382 -0.796498
v 1.783691 -0.392468 -0.864733
v 1.432889 -0.454595 -0.920303
v 1.082088 -0.533460 -0.963449
v 0.731286 -0.622305 -0.994258
v 0.380485 -0.728197 -1.012747
v 0.029683 -0.831834 -1.018911
v -0.321118 -0.932880 -1.012747
v -0.671920 -1.031395 -0.995402
v -1.022722 -1.126617 -0.965497
v -1.373523 -1.241293 -0.922368
v -1.724324 -1.352171 -0.866470
v -2.075126 -1.388875 -0.798360
v -2.425927 -1.338585 -0.717887
v -2.776729 -1.210961 -0.624913
v -3.127531 -0.982892 -0.521481
v -3.478332 -0.643916 -0.412551
v -3.829134 -0.194402 -0.225654
v 3.537699 -0.043934 -0.423000
v 3.186897 -0.077831 -0.583423
v 2.836095 -0.106942 -0.712631
v 2.485294 -0.136409 -0.827003
v 2.134492 -0.166191 -0.924067
v 1.783691 -0.196234 -1.005357
v 1.432889 -0.227297 -1.071559
v 1.082088 -0.266730 -1.122960
v 0.731286 -0.311152 -1.159664
v 0.380485 -0.364098 -1.181690
v 0.029683 -0.415917 -1.189034
v -0.321118 -0.466440 -1.181690
v -0.671920 -0.515698 -1.164164
v -1.022722 -0.563308 -1.133457
v -1.373523 -0.620646 -1.086576
v -1.724324 -0.676086 -1.023647
v -2.075126 -0.694437 -0.946388
v -2.425927 -0.669292 -0.855773
v -2.776729 -0.605480 -0.751573
v -3.127531 -0.491446 -0.632894
v -3.478332 -0.321958 -0.490647
v -3.829134 -0.097201 -0.230436
v 3.537699 0.000000 -0.430270
v 3.186897 0.000000 -0.607887
v 2.836095 0.000000 -0.752382
v 2.485294 0.000000 -0.874554
v 2.134492 0.000000 -0.978237
v 1.783691 0.000000 -1.065072
v 1.432889 0.000000 -1.135788
v 1.082088 0.000000 -1.190695
v 0.731286 0.000000 -1.229902
v 0.380485 0.000000 -1.253430
v 0.029683 0.000000 -1.261275
v -0.321118 0.000000 -1.253430
v -0.671920 0.000000 -1.237006
v -1.022722 0.000000 -1.208794
v -1.373523 0.000000 -1.164882
v -1.724324 0.000000 -1.105160
v -2.075126 0.000000 -1.029320
v -2.425927 0.000000 -0.936631
v -2.776729 0.000000 -0.825454
v -3.127531 0.000000 -0.691954
v -3.478332 0.000000 -0.525330
v -3.829134 0.000000 -0.232083
v 3.537699 0.043934 -0.423000
v 3.186897 0.077831 -0.583423
v 2.836095 0.106942 -0.712631
v 2.485294 0.136409 -0.827003
v 2.134492 0.166191 -0.924067
v 1.783691 0.196234 -1.005357
v 1.432889 0.227297 -1.071559
v 1.082088 0.266730 -1.122960
v 0.731286 0.311152 -1.159664
v 0.380485 0.364098 -1.181690
v 0.029683 0.415917 -1.189034
v -0.321118 0.466440 -1.181690
v -0.671920 0.515698 -1.164164
v -1.022722 0.563308 -1.133457
v -1.373523 0.620646 -1.086576
v -1.724324 0.676086 -1.023647
v -2.075126 0.694437 -0.946388
v -2.425927 0.669292 -0.855773
v -2.776729 0.605480 -0.751573
v -3.127531 0.491446 -0.632894
v -3.478332 0.321958 -0.490647
v -3.829134 0.097201 -0.230436
v 3.537699 0.087868 -0.403232
v 3.186897 0.155663 -0.522498
v 2.836095 0.213884 -0.619019
v 2.485294 0.272817 -0.715022
v 2.134492 0.332382 -0.796498
v 1.783691 0.392468 -0.864733
v 1.432889 0.454595 -0.920303
v 1.082088 0.533460 -0.963449
v 0.731286 0.622305 -0.994258
v 0.380485 0.728197 -1.012747
v 0.029683 0.831834 -1.018911
v -0.321118 0.932880 -1.012747
v -0.671920 1.031395 -0.995402
v -1.022722 1.126617 -0.965497
v -1.373523 1.241293 -0.922368
v -1.724324 1.352171 -0.866470
v -2.075126 1.388875 -0.798360
v -2.425927 1.338585 -0.717887
v -2.776729 1.210961 -0.624913
v -3.127531 0.982892 -0.521481
v -3.478332 0.643916 -0.412551
v -3.829134 0.194402 -0.225654
v 3.537699 0.131801 -0.373564
v 3.186897 0.233494 -0.448469
v 2.836095 0.320825 -0.517067
v 2.485294 0.409226 -0.593066
v 2.134492 0.498572 -0.657563
v 1.783691 0.588702 -0.711580
v 1.432889 0.681892 -0.755570
v 1.082088 0.800190 -0.789726
v 0.731286 0.933457 -0.814115
v 0.380485 1.092295 -0.828751
v 0.029683 1.247750 -0.833631
v -0.321118 1.399320 -0.828751
v -0.671920 1.547093 -0.814232
v -1.022722 1.689925 -0.789860
v -1.373523 1.861939 -0.755646
v -1.724324 2.028257 -0.711614
v -2.075126 2.083312 -0.657593
v -2.425927 2.007877 -0.593127
v -2.776729 1.816441 -0.517320
v -3.127531 1.474338 -0.429195
v -3.478332 0.965874 -0.335854
v -3.829134 0.291603 -0.218183
v 3.537699 0.175735 -0.336960
v 3.186897 0.311326 -0.379593
v 2.836095 0.427767 -0.433359
v 2.485294 0.545635 -0.492932
v 2.134492 0.664763 -0.543491
v 1.783691 0.784936 -0.585833
v 1.432889 0.909189 -0.620316
v 1.082088 1.066920 -0.647090
v 0.731286 1.244609 -0.666208
v 0.380485 1.456393 -0.677681
v 0.029683 1.663667 -0.681506
v -0.321118 1.865760 -0.677681
v -0.671920 2.062790 -0.666213
v -1.022722 2.253234 -0.647093
v -1.373523 2.482586 -0.620317
v -1.724324 2.704342 -0.585833
v -2.075126 2.777750 -0.543491
v -2.425927 2.677169 -0.492932
v -2.776729 2.421922 -0.433362
v -3.127531 1.965784 -0.363010
v -3.478332 1.287832 -0.281803
v -3.829134 0.388804 -0.208691
v 3.537699 0.219669 -0.296254
v 3.186897 0.389157 -0.321188
v 2.836095 0.534709 -0.367101
v 2.485294 0.682043 -0.413673
v 2.134492 0.830954 -0.453199
v 1.783691 0.981170 -0.486301
v 1.432889 1.136486 -0.513258
v 1.082088 1.333650 -0.534189
v 0.731286 1.555762 -0.549135
v 0.380485 1.820492 -0.558104
v 0.029683 2.079584 -0.561095
v -0.321118 2.332200 -0.558104
v -0.671920 2.578488 -0.549135
v -1.022722 2.816542 -0.534189
v -1.373523 3.103232 -0.358724
v -1.724324 3.380427 -0.340392
v -2.075126 3.472188 -0.317883
v -2.425927 3.346461 -0.291006
v -2.776729 3.027402 -0.259337
v -3.127531 2.457230 -0.221882
v -3.478332 1.609789 -0.176594
v -3.829134 0.486005 -0.144327
v 3.537699 0.263603 -0.253625
v 3.186897 0.466988 -0.269324
v 2.836095 0.641651 -0.306663
v 2.485294 0.818452 -0.341377
v 2.134492 0.997145 -0.370837
v 1.783691 1.177404 -0.395510
v 1.432889 1.363783 -0.415604
v 1.082088 1.600380 -0.431205
v 0.731286 1.866914 -0.442345
v 0.380485 2.184590 -0.449030
v 0.029683 2.495501 -0.451259
v -0.321118 2.798640 -0.449030
v -0.671920 3.094185 -0.442345
v -1.022722 3.379851 -0.431205
v -1.373523 3.723879 -0.292319
v -1.724324 4.056513 -0.278655
v -2.075126 4.166625 -0.261877
v -2.425927 4.015753 -0.241844
v -2.776729 3.632883 -0.218239
v -3.127531 2.948676 -0.190320
v -3.478332 1.931747 -0.156109
v -3.829134 0.583206 -0.136746
v 3.537699 0.307536 -0.210328
v 3.186897 0.544820 -0.218066
v 2.836095 0.748592 -0.243262
v 2.485294 0.954861 -0.265535
v 2.134492 1.163336 -0.284438
v 1.783691 1.373638 -0.300269
v 1.432889 1.591081 -0.313161
v 1.082088 1.867110 -0.323171
v 0.731286 2.178066 -0.330319
v 0.380485 2.548688 -0.334609
v 0.029683 2.911418 -0.336039
v -0.321118 3.265080 -0.334609
v -0.671920 3.609883 -0.330319
v -1.022722 3.943159 -0.323171
v -1.373523 4.344525 -0.222657
v -1.724324 4.732599 -0.213891
v -2.075126 4.861062 -0.203126
v -2.425927 4.685046 -0.190272
v -2.776729 4.238363 -0.175126
v -3.127531 3.440122 -0.157213
v -3.478332 2.253705 -0.135204
v -3.829134 0.680407 -0.129368
v 3.537699 0.351470 -0.166727
v 3.186897 0.622651 -0.163417
v 2.836095 0.855534 -0.173233
v 2.485294 1.091269 -0.181766
v 2.134492 1.329527 -0.189007
v 1.783691 1.569872 -0.195072
v 1.432889 1.818378 -0.200011
v 1.082088 2.133840 -0.203845
v 0.731286 2.489218 -0.206584
v 0.380485 2.912786 -0.208227
v 0.029683 3.327334 -0.208775
v -0.321118 3.731520 -0.208227
v -0.671920 4.125580 -0.206584
v -1.022722 4.506467 -0.203845
v -1.373523 4.965171 -0.145715
v -1.724324 5.408684 -0.142357
v -2.075126 5.555500 -0.138233
v -2.425927 5.354338 -0.133309
v -2.776729 4.843843 -0.127507
v -3.127531 3.931568 -0.120645
v -3.478332 2.575663 -0.112210
v -3.829134 0.777608 -0.122580
v 3.888500 0.000000 0.115854
v 3.537699 0.000000 0.416376
v 3.186897 0.000000 0.593993
v 2.836095 0.000000 0.738488
v 2.485294 0.000000 0.860660
v 2.134492 0.000000 0.964343
v 1.783691 0.000000 1.051178
v 1.432889 0.000000 1.121894
v 1.082088 0.000000 1.176801
v 0.731286 0.000000 1.216008
v 0.380485 0.000000 1.239537
v 0.029683 0.000000 1.247381
v -0.321118 0.000000 1.239537
v -0.671920 0.000000 1.223112
v -1.022722 0.000000 1.194900
v -1.373523 0.000000 1.150988
v -1.724324 0.000000 1.091266
v -2.075126 0.000000 1.015426
v -2.425927 0.000000 0.922737
v -2.776729 0.000000 0.811560
v -3.127531 0.000000 0.678060
v -3.478332 0.000000 0.511437
v -3.829134 0.000000 0.218189
v 3.413569 -0.120961 0.421213
v 2.166874 -0.676807 0.498430
v 1.038912 -1.468815 0.466897
v -0.207782 -2.649627 0.435677
v -1.365427 -4.492846 0.176840
v -1.870042 -5.241654 0.145832
v 3.413569 0.120961 0.421213
v 2.166874 0.676807 0.498430
v 1.038912 1.468815 0.466897
v -0.207782 2.649627 0.435677
v -1.365427 4.492846 0.176840
v -1.870042 5.241654 0.145832
v -1.617735 -5.284855 0.131392
v -1.944250 -5.544057 0.130942
v -2.330132 -5.457656 0.121853
v -2.716013 -4.996852 0.114685
v -1.825517 -3.211233 0.337161
v -2.107508 -4.982452 0.172258
v -2.775380 -4.766449 0.115887
v -3.152356 -3.902440 0.101824
v -2.766475 -2.721628 0.264962
v -2.062983 -2.865630 0.514571
v -2.908954 -1.958420 0.424514
v -3.339361 -2.808029 0.118978
v -3.636193 -1.641617 0.101342
v -3.309677 -0.835209 0.438840
v -1.617735 5.284855 0.131392
v -1.944250 5.544057 0.130942
v -2.330132 5.457656 0.121853
v -2.716013 4.996852 0.114685
v -1.825517 3.211233 0.337161
v -2.107508 4.982452 0.172258
v -2.775380 4.766449 0.115887
v -3.152356 3.902440 0.101824
v -2.766475 2.721628 0.264962
v -2.062983 2.865630 0.514571
v -2.908954 1.958420 0.424514
v -3.339361 2.808029 0.118978
v -3.636193 1.641617 0.101342
v -3.309677 0.835209 0.438840
v 3.725242 -0.138241 0.228120
v 3.852880 0.000000 0.191138
v 3.725242 0.138241 0.228120
v 3.466998 0.201602 0.350201
v 3.282963 0.000000 0.561157
v 3.466998 -0.201602 0.350201
v 3.072212 -0.408964 0.333304
v 2.834746 -0.120961 0.686200
v 2.968321 0.167042 0.586336
v 3.250311 0.362884 0.297981
v 3.354202 0.028800 0.508423
v 3.250311 -0.282243 0.362876
v 2.315290 -0.532806 0.542500
v 2.077824 -0.149762 0.927732
v 2.190621 0.195842 0.864225
v 2.493389 0.408964 0.567288
v 2.656647 0.017280 0.793699
v 2.537914 -0.360004 0.590646
v 1.448540 -0.446405 0.895993
v 1.217011 -0.097921 1.135024
v 1.380269 0.195842 1.072773
v 1.656323 0.339844 0.917822
v 1.825517 0.005760 1.029923
v 1.727563 -0.302403 0.925325
v 2.122349 -0.763208 0.492739
v 2.015490 -0.835209 0.489073
v 2.015490 -0.691207 0.567894
v 2.122349 0.763208 0.492739
v 2.015490 0.691207 0.567894
v 2.015490 0.835209 0.489073
v 1.053754 -0.936010 0.721178
v 0.946894 -1.008010 0.713027
v 0.946894 -0.864009 0.790490
v 1.053754 0.936010 0.721178
v 0.946894 0.864009 0.790490
v 0.946894 1.008010 0.713027
v 0.252307 -0.576006 1.108511
v 0.145448 -0.648007 1.089104
v 0.145448 -0.504005 1.150425
v 0.252307 0.576006 1.108511
v 0.145448 0.504005 1.150425
v 0.145448 0.648007 1.089104
v 0.222624 -0.619206 1.079473
v 0.222624 0.619206 1.079473
v -0.697555 0.619206 1.122240
v -0.697555 -0.619206 1.122240
v -0.267149 0.236162 1.242041
v -0.071780 0.118081 1.261275
v -0.071780 -0.118081 1.261275
v -0.267149 -0.236162 1.242041
v -0.462517 -0.118081 1.248347
v -0.462517 0.118081 1.248347
v -3.190945 0.426244 -0.995205
v -3.149250 0.418054 -0.995205
v -3.109158 0.393799 -0.995205
v -3.072209 0.354409 -0.995205
v -3.039822 0.301400 -0.995205
v -3.013244 0.236809 -0.995205
v -2.993494 0.163117 -0.995205
v -2.981332 0.083156 -0.995205
v -2.977226 0.000000 -0.995205
v -2.981332 -0.083156 -0.995205
v -2.993494 -0.163117 -0.995205
v -3.013244 -0.236809 -0.995205
v -3.039822 -0.301400 -0.995205
v -3.072209 -0.354409 -0.995205
v -3.109158 -0.393799 -0.995205
v -3.149250 -0.418054 -0.995205
v -3.190945 -0.426244 -0.995205
v -3.232639 -0.418054 -0.995205
v -3.272731 -0.393799 -0.995205
v -3.309681 -0.354409 -0.995205
v -3.342067 -0.301400 -0.995205
v -3.368646 -0.236809 -0.995205
v -3.388395 -0.163117 -0.995205
v -3.400557 -0.083156 -0.995205
v -3.404664 0.000000 -0.995205
v -3.400557 0.083156 -0.995205
v -3.388395 0.163117 -0.995205
v -3.368646 0.236809 -0.995205
v -3.342067 0.301400 -0.995205
v -3.309681 0.354409 -0.995205
v -3.272731 0.393799 -0.995205
v -3.232639 0.418054 -0.995205
v 2.790221 -0.302403 -1.214494
v 2.790221 0.302403 -1.214494
v -3.888500 0.302403 -1.214494
v -3.888500 -0.302403 -1.214494
o foil-11.111.airframe
# role consciousness · kind polyline · lod 0
l 1 2
l 2 3
l 3 4
l 4 5
l 5 6
l 6 7
l 7 8
l 8 9
l 9 10
l 10 11
l 11 12
l 12 13
l 13 14
l 14 15
l 15 16
l 16 17
l 17 18
l 18 19
l 19 20
l 20 21
l 21 22
l 22 23
l 1 24
l 24 25
l 25 26
l 26 27
l 27 28
l 28 29
l 29 30
l 30 31
l 31 32
l 32 33
l 33 34
l 34 35
l 35 36
l 36 37
l 37 38
l 38 39
l 39 40
l 40 41
l 41 42
l 42 43
l 43 44
l 44 45
l 1 46
l 46 47
l 47 48
l 48 49
l 49 50
l 50 51
l 51 52
l 52 53
l 53 54
l 54 55
l 55 56
l 56 57
l 57 58
l 58 59
l 59 60
l 60 61
l 61 62
l 62 63
l 63 64
l 64 65
l 65 66
l 66 67
l 1 68
l 68 69
l 69 70
l 70 71
l 71 72
l 72 73
l 73 74
l 74 75
l 75 76
l 76 77
l 77 78
l 78 79
l 79 80
l 80 81
l 81 82
l 82 83
l 83 84
l 84 85
l 85 86
l 86 87
l 87 88
l 88 89
l 1 90
l 90 91
l 91 92
l 92 93
l 93 94
l 94 95
l 95 96
l 96 97
l 97 98
l 98 99
l 99 100
l 100 101
l 101 102
l 102 103
l 103 104
l 104 105
l 105 106
l 106 107
l 107 108
l 108 109
l 109 110
l 110 111
l 1 112
l 112 113
l 113 114
l 114 115
l 115 116
l 116 117
l 117 118
l 118 119
l 119 120
l 120 121
l 121 122
l 122 123
l 123 124
l 124 125
l 125 126
l 126 127
l 127 128
l 128 129
l 129 130
l 130 131
l 131 132
l 132 133
l 1 134
l 134 135
l 135 136
l 136 137
l 137 138
l 138 139
l 139 140
l 140 141
l 141 142
l 142 143
l 143 144
l 144 145
l 145 146
l 146 147
l 147 148
l 148 149
l 149 150
l 150 151
l 151 152
l 152 153
l 153 154
l 154 155
l 1 156
l 156 157
l 157 158
l 158 159
l 159 160
l 160 161
l 161 162
l 162 163
l 163 164
l 164 165
l 165 166
l 166 167
l 167 168
l 168 169
l 169 170
l 170 171
l 171 172
l 172 173
l 173 174
l 174 175
l 175 176
l 176 177
l 1 178
l 178 179
l 179 180
l 180 181
l 181 182
l 182 183
l 183 184
l 184 185
l 185 186
l 186 187
l 187 188
l 188 189
l 189 190
l 190 191
l 191 192
l 192 193
l 193 194
l 194 195
l 195 196
l 196 197
l 197 198
l 198 199
l 1 200
l 200 201
l 201 202
l 202 203
l 203 204
l 204 205
l 205 206
l 206 207
l 207 208
l 208 209
l 209 210
l 210 211
l 211 212
l 212 213
l 213 214
l 214 215
l 215 216
l 216 217
l 217 218
l 218 219
l 219 220
l 220 221
l 1 222
l 222 223
l 223 224
l 224 225
l 225 226
l 226 227
l 227 228
l 228 229
l 229 230
l 230 231
l 231 232
l 232 233
l 233 234
l 234 235
l 235 236
l 236 237
l 237 238
l 238 239
l 239 240
l 240 241
l 241 242
l 242 243
l 1 244
l 244 245
l 245 246
l 246 247
l 247 248
l 248 249
l 249 250
l 250 251
l 251 252
l 252 253
l 253 254
l 254 255
l 255 256
l 256 257
l 257 258
l 258 259
l 259 260
l 260 261
l 261 262
l 262 263
l 263 264
l 264 265
l 1 266
l 266 267
l 267 268
l 268 269
l 269 270
l 270 271
l 271 272
l 272 273
l 273 274
l 274 275
l 275 276
l 276 277
l 277 278
l 278 279
l 279 280
l 280 281
l 281 282
l 282 283
l 283 284
l 284 285
l 285 286
l 286 287
l 1 288
l 288 289
l 289 290
l 290 291
l 291 292
l 292 293
l 293 294
l 294 295
l 295 296
l 296 297
l 297 298
l 298 299
l 299 300
l 300 301
l 301 302
l 302 303
l 303 304
l 304 305
l 305 306
l 306 307
l 307 308
l 308 309
l 1 310
l 310 311
l 311 312
l 312 313
l 313 314
l 314 315
l 315 316
l 316 317
l 317 318
l 318 319
l 319 320
l 320 321
l 321 322
l 322 323
l 323 324
l 324 325
l 325 326
l 326 327
l 327 328
l 328 329
l 329 330
l 330 331
l 1 332
l 332 333
l 333 334
l 334 335
l 335 336
l 336 337
l 337 338
l 338 339
l 339 340
l 340 341
l 341 342
l 342 343
l 343 344
l 344 345
l 345 346
l 346 347
l 347 348
l 348 349
l 349 350
l 350 351
l 351 352
l 352 353
l 1 354
l 354 355
l 355 356
l 356 357
l 357 358
l 358 359
l 359 360
l 360 361
l 361 362
l 362 363
l 363 364
l 364 365
l 365 366
l 366 367
l 367 368
l 368 369
l 369 370
l 370 371
l 371 372
l 372 373
l 373 374
l 374 375
l 376 377
l 377 378
l 378 379
l 379 380
l 380 381
l 381 382
l 382 383
l 383 384
l 384 385
l 385 386
l 386 387
l 387 388
l 388 389
l 389 390
l 390 391
l 391 392
l 392 393
l 393 394
l 394 395
l 395 396
l 396 397
l 397 398
l 376 399
l 399 400
l 400 401
l 401 402
l 402 403
l 403 404
l 404 405
l 405 406
l 406 407
l 407 408
l 408 409
l 409 410
l 410 411
l 411 412
l 412 413
l 413 414
l 414 415
l 415 416
l 416 417
l 417 418
l 418 419
l 419 420
l 376 421
l 421 422
l 422 423
l 423 424
l 424 425
l 425 426
l 426 427
l 427 428
l 428 429
l 429 430
l 430 431
l 431 432
l 432 433
l 433 434
l 434 435
l 435 436
l 436 437
l 437 438
l 438 439
l 439 440
l 440 441
l 441 442
l 376 443
l 443 444
l 444 445
l 445 446
l 446 447
l 447 448
l 448 449
l 449 450
l 450 451
l 451 452
l 452 453
l 453 454
l 454 455
l 455 456
l 456 457
l 457 458
l 458 459
l 459 460
l 460 461
l 461 462
l 462 463
l 463 464
l 376 465
l 465 466
l 466 467
l 467 468
l 468 469
l 469 470
l 470 471
l 471 472
l 472 473
l 473 474
l 474 475
l 475 476
l 476 477
l 477 478
l 478 479
l 479 480
l 480 481
l 481 482
l 482 483
l 483 484
l 484 485
l 485 486
l 376 487
l 487 488
l 488 489
l 489 490
l 490 491
l 491 492
l 492 493
l 493 494
l 494 495
l 495 496
l 496 497
l 497 498
l 498 499
l 499 500
l 500 501
l 501 502
l 502 503
l 503 504
l 504 505
l 505 506
l 506 507
l 507 508
l 376 509
l 509 510
l 510 511
l 511 512
l 512 513
l 513 514
l 514 515
l 515 516
l 516 517
l 517 518
l 518 519
l 519 520
l 520 521
l 521 522
l 522 523
l 523 524
l 524 525
l 525 526
l 526 527
l 527 528
l 528 529
l 529 530
l 376 531
l 531 532
l 532 533
l 533 534
l 534 535
l 535 536
l 536 537
l 537 538
l 538 539
l 539 540
l 540 541
l 541 542
l 542 543
l 543 544
l 544 545
l 545 546
l 546 547
l 547 548
l 548 549
l 549 550
l 550 551
l 551 552
l 376 553
l 553 554
l 554 555
l 555 556
l 556 557
l 557 558
l 558 559
l 559 560
l 560 561
l 561 562
l 562 563
l 563 564
l 564 565
l 565 566
l 566 567
l 567 568
l 568 569
l 569 570
l 570 571
l 571 572
l 572 573
l 573 574
l 376 575
l 575 576
l 576 577
l 577 578
l 578 579
l 579 580
l 580 581
l 581 582
l 582 583
l 583 584
l 584 585
l 585 586
l 586 587
l 587 588
l 588 589
l 589 590
l 590 591
l 591 592
l 592 593
l 593 594
l 594 595
l 595 596
l 376 597
l 597 598
l 598 599
l 599 600
l 600 601
l 601 602
l 602 603
l 603 604
l 604 605
l 605 606
l 606 607
l 607 608
l 608 609
l 609 610
l 610 611
l 611 612
l 612 613
l 613 614
l 614 615
l 615 616
l 616 617
l 617 618
l 376 619
l 619 620
l 620 621
l 621 622
l 622 623
l 623 624
l 624 625
l 625 626
l 626 627
l 627 628
l 628 629
l 629 630
l 630 631
l 631 632
l 632 633
l 633 634
l 634 635
l 635 636
l 636 637
l 637 638
l 638 639
l 639 640
l 376 641
l 641 642
l 642 643
l 643 644
l 644 645
l 645 646
l 646 647
l 647 648
l 648 649
l 649 650
l 650 651
l 651 652
l 652 653
l 653 654
l 654 655
l 655 656
l 656 657
l 657 658
l 658 659
l 659 660
l 660 661
l 661 662
l 376 663
l 663 664
l 664 665
l 665 666
l 666 667
l 667 668
l 668 669
l 669 670
l 670 671
l 671 672
l 672 673
l 673 674
l 674 675
l 675 676
l 676 677
l 677 678
l 678 679
l 679 680
l 680 681
l 681 682
l 682 683
l 683 684
l 376 685
l 685 686
l 686 687
l 687 688
l 688 689
l 689 690
l 690 691
l 691 692
l 692 693
l 693 694
l 694 695
l 695 696
l 696 697
l 697 698
l 698 699
l 699 700
l 700 701
l 701 702
l 702 703
l 703 704
l 704 705
l 705 706
l 376 707
l 707 708
l 708 709
l 709 710
l 710 711
l 711 712
l 712 713
l 713 714
l 714 715
l 715 716
l 716 717
l 717 718
l 718 719
l 719 720
l 720 721
l 721 722
l 722 723
l 723 724
l 724 725
l 725 726
l 726 727
l 727 728
l 376 729
l 729 730
l 730 731
l 731 732
l 732 733
l 733 734
l 734 735
l 735 736
l 736 737
l 737 738
l 738 739
l 739 740
l 740 741
l 741 742
l 742 743
l 743 744
l 744 745
l 745 746
l 746 747
l 747 748
l 748 749
l 749 750
l 2 24
l 24 46
l 46 68
l 68 90
l 90 112
l 112 134
l 134 156
l 156 178
l 178 200
l 200 222
l 222 244
l 244 266
l 266 288
l 288 310
l 310 332
l 332 354
l 3 25
l 25 47
l 47 69
l 69 91
l 91 113
l 113 135
l 135 157
l 157 179
l 179 201
l 201 223
l 223 245
l 245 267
l 267 289
l 289 311
l 311 333
l 333 355
l 4 26
l 26 48
l 48 70
l 70 92
l 92 114
l 114 136
l 136 158
l 158 180
l 180 202
l 202 224
l 224 246
l 246 268
l 268 290
l 290 312
l 312 334
l 334 356
l 5 27
l 27 49
l 49 71
l 71 93
l 93 115
l 115 137
l 137 159
l 159 181
l 181 203
l 203 225
l 225 247
l 247 269
l 269 291
l 291 313
l 313 335
l 335 357
l 6 28
l 28 50
l 50 72
l 72 94
l 94 116
l 116 138
l 138 160
l 160 182
l 182 204
l 204 226
l 226 248
l 248 270
l 270 292
l 292 314
l 314 336
l 336 358
l 7 29
l 29 51
l 51 73
l 73 95
l 95 117
l 117 139
l 139 161
l 161 183
l 183 205
l 205 227
l 227 249
l 249 271
l 271 293
l 293 315
l 315 337
l 337 359
l 8 30
l 30 52
l 52 74
l 74 96
l 96 118
l 118 140
l 140 162
l 162 184
l 184 206
l 206 228
l 228 250
l 250 272
l 272 294
l 294 316
l 316 338
l 338 360
l 9 31
l 31 53
l 53 75
l 75 97
l 97 119
l 119 141
l 141 163
l 163 185
l 185 207
l 207 229
l 229 251
l 251 273
l 273 295
l 295 317
l 317 339
l 339 361
l 10 32
l 32 54
l 54 76
l 76 98
l 98 120
l 120 142
l 142 164
l 164 186
l 186 208
l 208 230
l 230 252
l 252 274
l 274 296
l 296 318
l 318 340
l 340 362
l 11 33
l 33 55
l 55 77
l 77 99
l 99 121
l 121 143
l 143 165
l 165 187
l 187 209
l 209 231
l 231 253
l 253 275
l 275 297
l 297 319
l 319 341
l 341 363
l 12 34
l 34 56
l 56 78
l 78 100
l 100 122
l 122 144
l 144 166
l 166 188
l 188 210
l 210 232
l 232 254
l 254 276
l 276 298
l 298 320
l 320 342
l 342 364
l 13 35
l 35 57
l 57 79
l 79 101
l 101 123
l 123 145
l 145 167
l 167 189
l 189 211
l 211 233
l 233 255
l 255 277
l 277 299
l 299 321
l 321 343
l 343 365
l 14 36
l 36 58
l 58 80
l 80 102
l 102 124
l 124 146
l 146 168
l 168 190
l 190 212
l 212 234
l 234 256
l 256 278
l 278 300
l 300 322
l 322 344
l 344 366
l 15 37
l 37 59
l 59 81
l 81 103
l 103 125
l 125 147
l 147 169
l 169 191
l 191 213
l 213 235
l 235 257
l 257 279
l 279 301
l 301 323
l 323 345
l 345 367
l 16 38
l 38 60
l 60 82
l 82 104
l 104 126
l 126 148
l 148 170
l 170 192
l 192 214
l 214 236
l 236 258
l 258 280
l 280 302
l 302 324
l 324 346
l 346 368
l 17 39
l 39 61
l 61 83
l 83 105
l 105 127
l 127 149
l 149 171
l 171 193
l 193 215
l 215 237
l 237 259
l 259 281
l 281 303
l 303 325
l 325 347
l 347 369
l 18 40
l 40 62
l 62 84
l 84 106
l 106 128
l 128 150
l 150 172
l 172 194
l 194 216
l 216 238
l 238 260
l 260 282
l 282 304
l 304 326
l 326 348
l 348 370
l 19 41
l 41 63
l 63 85
l 85 107
l 107 129
l 129 151
l 151 173
l 173 195
l 195 217
l 217 239
l 239 261
l 261 283
l 283 305
l 305 327
l 327 349
l 349 371
l 20 42
l 42 64
l 64 86
l 86 108
l 108 130
l 130 152
l 152 174
l 174 196
l 196 218
l 218 240
l 240 262
l 262 284
l 284 306
l 306 328
l 328 350
l 350 372
l 21 43
l 43 65
l 65 87
l 87 109
l 109 131
l 131 153
l 153 175
l 175 197
l 197 219
l 219 241
l 241 263
l 263 285
l 285 307
l 307 329
l 329 351
l 351 373
l 22 44
l 44 66
l 66 88
l 88 110
l 110 132
l 132 154
l 154 176
l 176 198
l 198 220
l 220 242
l 242 264
l 264 286
l 286 308
l 308 330
l 330 352
l 352 374
l 377 399
l 399 421
l 421 443
l 443 465
l 465 487
l 487 509
l 509 531
l 531 553
l 553 575
l 575 597
l 597 619
l 619 641
l 641 663
l 663 685
l 685 707
l 707 729
l 378 400
l 400 422
l 422 444
l 444 466
l 466 488
l 488 510
l 510 532
l 532 554
l 554 576
l 576 598
l 598 620
l 620 642
l 642 664
l 664 686
l 686 708
l 708 730
l 379 401
l 401 423
l 423 445
l 445 467
l 467 489
l 489 511
l 511 533
l 533 555
l 555 577
l 577 599
l 599 621
l 621 643
l 643 665
l 665 687
l 687 709
l 709 731
l 380 402
l 402 424
l 424 446
l 446 468
l 468 490
l 490 512
l 512 534
l 534 556
l 556 578
l 578 600
l 600 622
l 622 644
l 644 666
l 666 688
l 688 710
l 710 732
l 381 403
l 403 425
l 425 447
l 447 469
l 469 491
l 491 513
l 513 535
l 535 557
l 557 579
l 579 601
l 601 623
l 623 645
l 645 667
l 667 689
l 689 711
l 711 733
l 382 404
l 404 426
l 426 448
l 448 470
l 470 492
l 492 514
l 514 536
l 536 558
l 558 580
l 580 602
l 602 624
l 624 646
l 646 668
l 668 690
l 690 712
l 712 734
l 383 405
l 405 427
l 427 449
l 449 471
l 471 493
l 493 515
l 515 537
l 537 559
l 559 581
l 581 603
l 603 625
l 625 647
l 647 669
l 669 691
l 691 713
l 713 735
l 384 406
l 406 428
l 428 450
l 450 472
l 472 494
l 494 516
l 516 538
l 538 560
l 560 582
l 582 604
l 604 626
l 626 648
l 648 670
l 670 692
l 692 714
l 714 736
l 385 407
l 407 429
l 429 451
l 451 473
l 473 495
l 495 517
l 517 539
l 539 561
l 561 583
l 583 605
l 605 627
l 627 649
l 649 671
l 671 693
l 693 715
l 715 737
l 386 408
l 408 430
l 430 452
l 452 474
l 474 496
l 496 518
l 518 540
l 540 562
l 562 584
l 584 606
l 606 628
l 628 650
l 650 672
l 672 694
l 694 716
l 716 738
l 387 409
l 409 431
l 431 453
l 453 475
l 475 497
l 497 519
l 519 541
l 541 563
l 563 585
l 585 607
l 607 629
l 629 651
l 651 673
l 673 695
l 695 717
l 717 739
l 388 410
l 410 432
l 432 454
l 454 476
l 476 498
l 498 520
l 520 542
l 542 564
l 564 586
l 586 608
l 608 630
l 630 652
l 652 674
l 674 696
l 696 718
l 718 740
l 389 411
l 411 433
l 433 455
l 455 477
l 477 499
l 499 521
l 521 543
l 543 565
l 565 587
l 587 609
l 609 631
l 631 653
l 653 675
l 675 697
l 697 719
l 719 741
l 390 412
l 412 434
l 434 456
l 456 478
l 478 500
l 500 522
l 522 544
l 544 566
l 566 588
l 588 610
l 610 632
l 632 654
l 654 676
l 676 698
l 698 720
l 720 742
l 391 413
l 413 435
l 435 457
l 457 479
l 479 501
l 501 523
l 523 545
l 545 567
l 567 589
l 589 611
l 611 633
l 633 655
l 655 677
l 677 699
l 699 721
l 721 743
l 392 414
l 414 436
l 436 458
l 458 480
l 480 502
l 502 524
l 524 546
l 546 568
l 568 590
l 590 612
l 612 634
l 634 656
l 656 678
l 678 700
l 700 722
l 722 744
l 393 415
l 415 437
l 437 459
l 459 481
l 481 503
l 503 525
l 525 547
l 547 569
l 569 591
l 591 613
l 613 635
l 635 657
l 657 679
l 679 701
l 701 723
l 723 745
l 394 416
l 416 438
l 438 460
l 460 482
l 482 504
l 504 526
l 526 548
l 548 570
l 570 592
l 592 614
l 614 636
l 636 658
l 658 680
l 680 702
l 702 724
l 724 746
l 395 417
l 417 439
l 439 461
l 461 483
l 483 505
l 505 527
l 527 549
l 549 571
l 571 593
l 593 615
l 615 637
l 637 659
l 659 681
l 681 703
l 703 725
l 725 747
l 396 418
l 418 440
l 440 462
l 462 484
l 484 506
l 506 528
l 528 550
l 550 572
l 572 594
l 594 616
l 616 638
l 638 660
l 660 682
l 682 704
l 704 726
l 726 748
l 397 419
l 419 441
l 441 463
l 463 485
l 485 507
l 507 529
l 529 551
l 551 573
l 573 595
l 595 617
l 617 639
l 639 661
l 661 683
l 683 705
l 705 727
l 727 749
l 2 377
l 46 421
l 90 465
l 134 509
l 178 553
l 222 597
l 266 641
l 310 685
l 354 729
l 4 379
l 48 423
l 92 467
l 136 511
l 180 555
l 224 599
l 268 643
l 312 687
l 356 731
l 6 381
l 50 425
l 94 469
l 138 513
l 182 557
l 226 601
l 270 645
l 314 689
l 358 733
l 8 383
l 52 427
l 96 471
l 140 515
l 184 559
l 228 603
l 272 647
l 316 691
l 360 735
l 10 385
l 54 429
l 98 473
l 142 517
l 186 561
l 230 605
l 274 649
l 318 693
l 362 737
l 12 387
l 56 431
l 100 475
l 144 519
l 188 563
l 232 607
l 276 651
l 320 695
l 364 739
l 14 389
l 58 433
l 102 477
l 146 521
l 190 565
l 234 609
l 278 653
l 322 697
l 366 741
l 16 391
l 60 435
l 104 479
l 148 523
l 192 567
l 236 611
l 280 655
l 324 699
l 368 743
l 18 393
l 62 437
l 106 481
l 150 525
l 194 569
l 238 613
l 282 657
l 326 701
l 370 745
l 20 395
l 64 439
l 108 483
l 152 527
l 196 571
l 240 615
l 284 659
l 328 703
l 372 747
l 22 397
l 66 441
l 110 485
l 154 529
l 198 573
l 242 617
l 286 661
l 330 705
l 374 749
l 1 354
l 354 355
l 355 356
l 356 357
l 357 358
l 358 359
l 359 360
l 360 361
l 361 362
l 362 363
l 363 364
l 364 365
l 365 366
l 366 367
l 367 368
l 368 369
l 369 370
l 370 371
l 371 372
l 372 373
l 373 374
l 374 375
l 375 23
l 23 22
l 22 21
l 21 20
l 20 19
l 19 18
l 18 17
l 17 16
l 16 15
l 15 14
l 14 13
l 13 12
l 12 11
l 11 10
l 10 9
l 9 8
l 8 7
l 7 6
l 6 5
l 5 4
l 4 3
l 3 2
l 2 1
l 376 729
l 729 730
l 730 731
l 731 732
l 732 733
l 733 734
l 734 735
l 735 736
l 736 737
l 737 738
l 738 739
l 739 740
l 740 741
l 741 742
l 742 743
l 743 744
l 744 745
l 745 746
l 746 747
l 747 748
l 748 749
l 749 750
l 750 398
l 398 397
l 397 396
l 396 395
l 395 394
l 394 393
l 393 392
l 392 391
l 391 390
l 390 389
l 389 388
l 388 387
l 387 386
l 386 385
l 385 384
l 384 383
l 383 382
l 382 381
l 381 380
l 380 379
l 379 378
l 378 377
l 377 376
l 751 752
l 752 753
l 753 754
l 754 755
l 755 756
l 756 757
l 757 758
l 758 759
l 759 760
l 760 761
l 761 762
l 762 763
l 763 764
l 764 765
l 765 766
l 766 767
l 767 768
l 768 769
l 769 770
l 770 771
l 771 772
l 772 773
l 774 775
l 775 776
l 776 777
l 777 778
l 778 779
l 780 781
l 781 782
l 782 783
l 783 784
l 784 785
l 786 787
l 787 788
l 788 789
l 790 791
l 791 792
l 792 793
l 793 794
l 794 795
l 795 790
l 796 797
l 797 798
l 798 799
l 800 801
l 801 802
l 802 803
l 804 805
l 805 806
l 806 807
l 807 808
l 808 809
l 809 804
l 810 811
l 811 812
l 812 813
l 814 815
l 815 816
l 816 817
l 817 818
l 818 819
l 819 814
l 820 821
l 821 822
l 822 823
l 823 824
l 824 825
l 825 820
l 826 827
l 827 828
l 828 829
l 829 830
l 830 831
l 831 826
l 832 833
l 833 834
l 834 835
l 835 836
l 836 837
l 837 832
l 838 839
l 839 840
l 840 838
l 841 842
l 842 843
l 843 841
l 844 845
l 845 846
l 846 844
l 847 848
l 848 849
l 849 847
l 850 851
l 851 852
l 852 850
l 853 854
l 854 855
l 855 853
l 856 857
l 857 858
l 858 859
l 859 856
l 860 861
l 861 862
l 862 863
l 863 864
l 864 865
l 865 860
l 866 867
l 867 868
l 868 869
l 869 870
l 870 871
l 871 872
l 872 873
l 873 874
l 874 875
l 875 876
l 876 877
l 877 878
l 878 879
l 879 880
l 880 881
l 881 882
l 882 883
l 883 884
l 884 885
l 885 886
l 886 887
l 887 888
l 888 889
l 889 890
l 890 891
l 891 892
l 892 893
l 893 894
l 894 895
l 895 896
l 896 897
l 897 866
l 898 899
l 899 900
l 900 901
l 901 898
l 898 900
l 899 901
